<svg xmlns="http://www.w3.org/2000/svg" xmlns:xlink="http://www.w3.org/1999/xlink" viewBox="0 0 191.21 216"><defs><style>.a{fill:url(#a);}.b{fill:url(#b);}.c{fill:url(#c);}</style><linearGradient id="a" x1="2.86" y1="53.72" x2="188.08" y2="202.11" gradientUnits="userSpaceOnUse"><stop offset="0" stop-color="#774517"/><stop offset="0.24" stop-color="#683b13"/><stop offset="0.71" stop-color="#502a0c"/><stop offset="1" stop-color="#472409"/></linearGradient><linearGradient id="b" x1="20.63" y1="12.44" x2="90.76" y2="192.32" gradientUnits="userSpaceOnUse"><stop offset="0" stop-color="#d68045"/><stop offset="1" stop-color="#8c5b35"/></linearGradient><linearGradient id="c" x1="140.85" y1="150.05" x2="166.95" y2="216.98" xlink:href="#b"/></defs><title>boot</title><path class="a" d="M119.52,172.35c-4.85,10.93-16.57,23.85-29.34,24.42-8.72.39-14.39-6.71-15.26-15l-4.18,0c.57,5.07-8.62,2.58-11.42,2.37q-11.51-.85-23-1.75c-2.6-.21-5.24-.32-7.82-.67-4.72-.64-7.87-3.27-12.18-4.48-4-1.12-7.67-.06-10.79-3.75-3.3-3.89-2.5-9.94-2.74-14.69-3.63-1.43-2.87-1-2.3-4.53.36-2.19.57-4.63,3.35-3l2-7.06c-4.33-2.08-1.34-9.88,3.16-7.72.62-1.6,1.28-3.28,1.95-5-3.25-1.66-3-1.56-1.61-5,1.33-3.33,1-3.83,4.51-2l1.9-4c-3.15-2.15-3.29-3.28-.85-6.71,2.07-2.92,1.59-2.41,4.91-.17,2.17-10.41-.59-22-.31-32.6.05-2-.88-10.52.53-12.17,1.18-1.39,3.19.31,4.72,1,.57-3.68,1.12-7.25,1.67-10.79-4.78-2.24-3.85-5.13-1.69-10.07,1.24-2.84,1.13-4,4.5-1.71L33,37.69c-3.29-2.48-4.16-4.73-.52-8.37,1.55-1.55,2.17-1.83,4.31.2C38,27.13,39,25.21,40.21,23c-2.78-3.36-3-3-.72-6.87,2.15-3.63,2.24-4.07,5.06-.34,1.09-1.6,2-2.92,3-4.41-2.62-4.28-1.16-5,2-8.67l2.53,3.14c5.7-5.76,10.37-7,17.94-4.75C75.91,2.8,81.89,2.9,87.58,5.45,95.69,9.08,103.82,15.76,105.21,25s-1.86,20.48-5.2,29.12c-3.68,9.53-8.57,18.53-12.8,27.8a21.79,21.79,0,0,0,.12,19.51c2.87,6,13.68,18.15,21.1,11-5.38-3.27-7.31-7.51-10.8-12.55-.77-1.12-2.44-1.9-1.54-3,1.2-1.44,6.39,2,7.22,2.58,4.94,3.53,23.52,19.36,12.9,24.8a21.21,21.21,0,0,1,9,8.73c2.45,4.28,1.67,7.14.78,11.67C124.14,154.32,123.58,163.21,119.52,172.35Zm0,20.06c-.92-11.16,6.45-25.79,17.63-29.23-.21-6.49-7.47-8-.36-12.56,2.12-1.36,4-2.87,6.5-1.83,3,1.24,4.9,6.61,5.34,9.51,9.8-1.91,18.07,3.49,20.37,13.17,8.62-2.6,14.67,2.59,16.23,10.54,0,0,0,0,0,0,1.53-.7,3.52-1.38,4.81-.07.43.44,1.36,5,1.08,5.55-.92,2-4,.22-5.33,1.79s0,5.48-.08,7.18c-.53,7.57-6.92,22.37-16.21,19-11.44-5.8,2.26-25.83,9.31-28.95,2.89-1.19-3-7.28-5.1-7.43-4.85-.35-3.9,1.89-3.49,4.9a27.17,27.17,0,0,1-2.63,14.56C165,204.3,158.4,213.34,151,210.44c-7.67-3-5.69-13.56-3.42-19.52-3.07,5.87-8.3,12.56-15.42,13.21S120.26,199,119.56,192.41Zm59.81,2.68c-2.07,1.22-11.06,13.09-7,15h0C176.86,211.56,179.8,197.59,179.37,195.09Zm-23.65-.84c-1.23,2.63-2.39,5.93-1.47,8.8,5.44-2.09,7.87-10.9,7.47-16.1A20.58,20.58,0,0,0,155.72,194.25Zm-6.31-7.75c-.11.39-.24.77-.37,1.13,2.42-4.62,6.47-9.51,11.49-11.34,0,0,0,0,0,0,1-5.72-6.3-10.1-10.68-5.93C152,175.44,150.85,181.38,149.41,186.5Zm-18.2,7.59h0c6,.85,8.53-14,8.12-17.52C136.26,178.59,126.58,190.16,131.21,194.09Z"/><path class="b" d="M107.28,130.49h0c2.11-.61,3.49,2.8,2.19,4.14C107.34,136.83,104.54,131.29,107.28,130.49ZM94,119.62a2.49,2.49,0,0,0,2-2.05l-2.79-2.31C93.17,116.09,92.6,119.17,94,119.62ZM27.81,179.43c-4.62-.51-7.75-3.36-11.94-4.72-2.61-.84-4.45.1-7.09-1.93-3.14-2.43-3.74-6.05-4-9.82-.34-4.49.7-4.56-3.43-6.45l.9-4.12,2.08.7L7,143.41c-.89-.43-1.47-.78-2.48-1.27.7-1.85,1.45-3.65,2.21-5.48,1,.48,1.93.87,2.81,1.3,1.48-3.75,4.39-6.7.17-9l1.78-4.53c4.57,2.51,7.36-5.19,3-6.48.86-1.71,1.58-3.43,2.4-5.07,3.54,2.51,4.17,3.42,4.85-1.4s0-10.22-.33-15.18c-.51-8.93-.12-17.65.11-26.57l4.55,2.07c.4-3.17,2.42-8.84,1.67-11.88-.57-2.37-1-2.27-3.47-3.37.83-3.32,1.52-6,2.38-9.27l3.56,1.6c1.52-3.86,3-7.59,4.45-11.34-1.12-.78-2.17-1.68-3.37-2.52.91-1.93,1.71-3.58,2.58-5.43l3.57,2.13c.91-1.71,4.24-6.13,4.15-7.95S40.37,21,39.12,19.51c1.17-2,1.8-3.06,2.91-4.92l2.79,3.29c3.17-4.85,5-5.26,1.9-9.94.91-1.16,2-2.43,2.88-3.56,1.95,2.28,2,3.16,4.49,2C56.74,5.18,57.72,2,61.15,1.66c4.92-.56,1.89,2-.85,4.73l2.36,3.05L60,12.35,57.32,9.47C54.62,13,52,15,55.63,18.53c-.55.95-1.6,2.77-2.22,3.82-1-1.11-2-1.94-3-3.15-.85,1.67-2.46,3.77-2.86,5.63-.85,3.9.48.9.94,4.17.4,2.9-.49,4.49-1.93,7.69-3.64-1.8-3.82-1.45-5.29,2.38s-1.41,3.66,2,6c-1,3.21-1.93,6.44-2.93,9.76L36.7,53.38a32.4,32.4,0,0,0-1.63,8.48c-.26,3.87-.31,3.24,3.28,4.65-.29,3.46-.59,7-.9,10.74L33.7,75.78c-1.74,15.64-.5,31.39-4.77,46.71-3.22-1-3.93.57-4.63,3.88-.53,2.54.38,1.88.59,3.52.23,1.85.65,2.14-.56,5.22-2.75-1.3-4.44-1.47-5.07,2.6-.4,2.51,0,2.3,2.2,4-.85,1.69-1.65,3.38-2.5,5.09-3.29-2.21-3.48-1.92-5.14,1.27s-1.81,3.32,1.23,5.71c-.47.72-4.47,5.91-3.58,6.55s3.32-3.65,3.62-4.25c1.4-2.81,1.43-2.88-1.27-5l2.47-4.9c3.28,2.16,3.21,2.65,5-1.27,1.65-3.53,2-3.6-1.28-5.85.62-1.28,1.24-2.59,1.9-4,3.34,1.72,3.09,1.59,4.5-2,1.28-3.26,1.79-3.34-1.5-5.05l2-5c3.59,1.14,3.63.55,4.58-3.09a76.81,76.81,0,0,0,1.94-11.67c1.06-10.17,1.29-20.43,1.82-30.63,3.16,1.42,3.22,1.06,3.9-2a29.87,29.87,0,0,0,.46-6.87c-.34-3.56-.3-3.06-3.79-4.44L37.55,55l3.86,1.52,3.48-11.62c-1.11-.68-2.2-1.54-3.35-2.25L43.73,37l3.65,1.81c1-2.52,4-7.11,3.31-9.37-.39-1.2-2.29-1.42-2.45-2.94-.13-1.2,2.06-4.19,2.56-5.18l3,3.06c.47-.85,2.8-4.12,2.87-5.08S56,17.75,56,17.06c0-.46-1.32-1.22-1.4-1.91s2.42-3.56,2.8-4.1C60.9,14.55,61,13.37,64,9.5c-.73-.9-1.39-2-2.2-3,2-2.2,2.94-4.27,5.73-4.1,4.46.28,3.18,2.93,2.33,5.9-2.45,8.62-7.37,16.08-11.44,24C50.4,48,44.14,65.09,41.55,82.52c-2.75,18.59-4,37.63-8.94,55.82a128.72,128.72,0,0,1-5,14.85c-.86,2.1-9.6,17.44-9.33,17.62,2.27,1.48,12.8-20.45,14-23.51,2,6.35,6.79,9.69,11.22,14.27A26.83,26.83,0,0,1,49,169.23c.39.88,1.92,8.34,2.11,8.35,2.75.24,0-10.4-.52-11.55-2.51-5.19-7-7.34-10.45-11.59-5.62-6.93-2.41-21.72-.83-29.74,4.66-23.58,3.48-47.82,12-70.55A232,232,0,0,1,64.34,25.43C66.89,20.69,69.57,16,71,10.76c1.15-4.1-.12-7.13,4.64-6.69,8.92.83,19.36,8,23.47,15.83,4.83,9.23,1.32,21.58-1.85,30.82-2.38,6.91-5.74,13.43-8.6,20.15a158.73,158.73,0,0,0-5.76,14.82c-.18.58-3.54,8.49-1.52,7.53,0-.58,0-2,1-2.17.33-.07,1.83,7.92,1.83,8.09,0,3.37-3.83,11.47,3,8.17,2.5,3.75,3.48,5.63,4.18,9.79S94.36,123,97,118.5c2.23,1.15,5.19,3.47,7.73,3.71,2,.2,3.51.8,1.09-1.24-.6-.51-10.76-5-10-6.36.13-.21,5.65,1.83,6.17,1.86,3.44.17,5.18-1.5,7.56-3.61,2.46.94,7.47,3.49,7.2,6.61-.22,2.52-5.09,3.54-5.12,4.3,0,.46,7.91,6.5,8.55,7.29,2.66,3.29,3.43,6.14,3,10.46-1,11.41-4.2,24.14-10.63,33.79-4.69,7-17.22,20.91-27.37,17.4a40.58,40.58,0,0,0,24-26.05c2.27-7.3,1.61-15.46,4.83-22.43.9-1.93,5-5.42,5.29-6.83.54-3-3.21.21-4.2,1.17-9.65,9.31-6,25.55-13.45,36.46a54.24,54.24,0,0,1-14.82,14.73c-6.49,4.12-8.91-3.22-10.56-8.68,2.52.64,18.57-4.14,17.23-6.7-.63-1.19-9.36,3.36-10.33,3.68-4.88,1.62-6.47-.62-11-1.27-6.16-.88-2.41,2.59-4.91,5.08S50,181.26,46.49,181C40.27,180.5,34,180.11,27.81,179.43ZM107,128.57c-1.59.54-2.2,2.8-1.36,5.07h0C109.76,144.88,115.36,125.77,107,128.57Zm-3.84,5.32h0c.43,1,.09-2.32.29-2.79.35-.83,4.93-5.35,3.81-5.77-.24-.09-2.59,2.57-2.83,2.93C103.09,130.21,102.12,131.37,103.11,133.89ZM59.91,74.16h0c-2.66-.06-2.72-.09-3,1.33C58.34,75.48,59.94,76,59.91,74.16Zm6.13.47c-2.61-.52-2.66-.56-3.15.79C64.3,75.67,65.75,76.45,66,74.63Zm5.65,1.68c-2.47-1-2.51-1-3.25.18.56.21,1.11.41,1.65.63h0C71.09,77.51,71.34,77.28,71.69,76.31Zm3.52,3.34c.72.67,1.29.51,1.73-.46-2.21-1.49-2.24-1.55-3.22-.49l1.49,1Zm1.27,94.26c-2.27.68,2.41.78,2.32.78,2.78-.28,6-2.42,8.22-3.87,1.3-.83,12.93-9.77,11.14-11.26-.55-.45-8.44,7.19-9.13,7.72A38.92,38.92,0,0,1,76.48,173.91ZM49.8,72.42c6.43-.45,12.67-1.54,19,.43,1.53.47,11.86,6.89,12.42,6.18,2.63-3.32-14.8-9.25-16.58-9.46a33.21,33.21,0,0,0-10.38.54C53.72,70.21,47.45,72.42,49.8,72.42Zm4.14,2.06c-2.65.29-2.71.27-2.77,1.7C52.56,76,54.21,76.26,53.94,74.48Zm.59,49.35c.36-2,3.22-23,.79-23,.29,0-3.76,34-4.14,33.87h0C52.47,135,54.39,124.57,54.53,123.83ZM45.15,174c.13.58.26,1.15.38,1.72h0c.21,1,.56,1.13,1.55.89C46.57,174,46.59,173.94,45.15,174ZM43,168.71c.53,1.17.85,2.91,2.43,2.16C44.35,168.42,44.35,168.35,43,168.71ZM39.78,164c.34.49.69,1,1,1.44h0c.48.9,1.08,1,1.77.22C41.09,163.48,41.08,163.42,39.78,164Zm-4.26-4.14c1,1,1.78,2.45,3,1.15C36.71,159.12,36.69,159.05,35.52,159.89Zm-4.59-3.58c.47.36.95.71,1.41,1.07h0c.68.72,1.26.61,1.75-.32C32,155.39,32,155.33,30.93,156.31Zm54-50.14c2.55.44,1.17-1.8.49-3.5a16.53,16.53,0,0,0-.61,2.17h0A5.54,5.54,0,0,0,84.88,106.17Z"/><path class="c" d="M146.08,189a30,30,0,0,0,1.16-2.91c1.67-5.56,2.4-11.25.65-15.08a1.89,1.89,0,0,1,.21-1.86,8.47,8.47,0,0,1,14.42,6.73c0,.25-.07.54-.12.79a1.89,1.89,0,0,1-1.3,1.41c-3.43,1.13-7,4.86-10,9.51-.53.85-1.27,2.43-1.27,2.43-3.64,8.42-3.76,16.34,1.35,18.73s11.1-2.81,15.22-11c0,0,.73-1.58,1-2.53,1.67-5.26,2.13-10.53.8-13.89a1.53,1.53,0,0,1,.17-1.52,6.9,6.9,0,0,1,7.83-1.37,7.72,7.72,0,0,1,4.16,7.36c0,.2-.06.44-.1.64a1.62,1.62,0,0,1-1,1.22l-1.28.63c-2.63,1.36-5.36,4.43-7.74,8.25-.46.74-1.1,2.1-1.1,2.1-3.15,7.26-3.39,14,.79,16s9.21-2.6,12.74-9.67c0,0,.63-1.36.9-2.19,1.39-4.28,1.94-8.48,1.11-11.32,0,0-.56-2.16.79-2.82a11.3,11.3,0,0,1,4.71-1.16l-1-5.35a6.62,6.62,0,0,0-3.39.74c-1.48.85-1.63-.76-1.63-.76-2.87-13.85-15.1-8.84-15.1-8.84a1.2,1.2,0,0,1-1.73-.94C163,155.76,148,161.23,148,161.23a1.19,1.19,0,0,1-1.87-.88,13.12,13.12,0,0,0-4.43-9l-5.8,3.17a11.68,11.68,0,0,1,4.14,9.19c.06,1.56-1.93,2.08-1.93,2.08-4.21,1.18-8.51,5.29-11.93,10.49a29.1,29.1,0,0,0-1.47,2.75c-4.11,9.62-3.81,18.87,2.79,21.94S141.35,198.35,146.08,189Zm32.49,15.26c-1.83,3.94-4.48,6.68-6.07,6.68a1.33,1.33,0,0,1-.48-.1h0c-1.48-.69-1.21-4.88.82-9.25s6.26-7.89,7-7.54S180.61,199.92,178.57,204.29Zm-17.21-7.41c-2.11,4.53-5.23,7.66-7.16,7.66a1.41,1.41,0,0,1-.62-.13h0c-1.81-.84-1.6-5.74.76-10.8s7.39-9.08,8.31-8.66S163.72,191.81,161.36,196.88Zm-31.1-.84h0c-2.33-1.09-2.35-6.8.34-12.57s8.81-10.18,10-9.62,1.76,8.07-.94,13.84c-2.37,5.09-6,8.53-8.49,8.54A2.35,2.35,0,0,1,130.26,196Z"/></svg>