<svg xmlns="http://www.w3.org/2000/svg" xmlns:xlink="http://www.w3.org/1999/xlink" viewBox="0 0 224.16 166.69"><defs><style>.a{fill:url(#a);}.b{fill:url(#b);}</style><linearGradient id="a" x1="82.35" y1="18.45" x2="146.62" y2="129.77" gradientUnits="userSpaceOnUse"><stop offset="0" stop-color="#ff1212"/><stop offset="0.63" stop-color="#840606"/><stop offset="1" stop-color="#520101"/></linearGradient><linearGradient id="b" x1="110.78" y1="6.9" x2="110.78" y2="163.99" gradientUnits="userSpaceOnUse"><stop offset="0" stop-color="#ffab8a"/><stop offset="0.41" stop-color="#ff6451"/><stop offset="1" stop-color="red"/></linearGradient></defs><title>disruptor</title><path class="a" d="M78,166.69c9.31,0,18.09-4,24.95-10.16,6-5.39,9-12.5,14.16-18.42,7.17-8.2,17.28-8.22,26.74-12.09,7.94-3.25,14.62-7.77,21.65-12.53,3.66-2.49,7.77-5.11,12.23-5.82.46-.08,3.73.25,4.47-.12,6.84-3.46-5-6.41-7.94-6.13-9.5.91-17.62,5.72-27,.76,11.7-6,25.72-6.42,36.46-14.83,4.1-3.21,11.7-13.73,8.95-19.47-2.88-6-13.71,4.76-18.68,4.33-5.53-2.68-1.19-12.33,1.67-15.67,8.29-9.71,20.45-14.82,31.68-20.21,5.23-2.51,10.26-5.37,13.74-10.22,2-2.83,4.91-7.63,1.54-10.58s-7.22.39-10.36,1.67c-8.25,3.72-19.46,1.73-27.88.3-9.14-1.55-15.63-1.67-24.43,2.3,3.41-3.23,10.77-5.39,13-9.29,2.92-5.19-1.4-9.55-6.21-10.19C150.66-1.81,135.31,7.17,122.86,16c2.22-3.07,7.18-6.7,3.31-10.77-3.71-3.91-12,.34-15.74,2.29-12,6.26-20.53,17.39-30,26.67-7.8,7.64-15.52,14-26.62,15.18-6.65.74-13.9-.31-20.17,2.29-43.31,18-43.84,80.15-7.06,104.78C42.44,167.06,59.79,166.67,78,166.69Z"/><path class="b" d="M54.14,109.91S52.58,94.43,62.49,82.7c7.44,5.54,12.49,14.13,6.88,22.74C66.11,110.44,59.72,113.13,54.14,109.91Zm16.67,9.51a7.47,7.47,0,0,0-.93,0h0c-4.27.88-11.56,4.92-10.69,9.95C60.34,136.19,69.9,142,75.86,143,85.05,121,74.18,119.42,70.81,119.42ZM83.4,90.36c5.69,0,10.3-6.75,10.3-15.07a19.83,19.83,0,0,0-20.57-1.16h0C72.81,80.25,75.67,90.36,83.4,90.36ZM202.28,24.15c-10.3.9-20.65-3.67-30.75-2.12-9.75,1.49-17.9,8-27.8,9.51C149.35,21.12,156,12,167.22,7.2a1.37,1.37,0,0,0-1.3-.23h0c-24.46.6-43.11,14.89-58.41,32.86-1.49-4.36,2.26-11.47,4.07-15.29,2.67-5.65,6.09-11.63,10.83-15.79C97.16,11.65,82.89,40.67,82.89,40.67c7.66,1,14.28,4.39,21.22,7.56,2.62,1.19,12.64,7,15.56,4.08-5.28-2.32-6.06-4.22-1.27-7.83,4-3,8.42-5.52,12.56-8.36-3.08,4.17-12.73,17.78-4,21.43,2.47,1,6.09.21,8.62-.07a139.32,139.32,0,0,0,20.58-3.69c-1.49,7.51-8.63,13.82-14.38,18.22-3.8,2.9-8.29,4.83-12,7.8-2.45,2-6.85,8.89.23,7.83-1.33-2-1.16-3,.51-3.88,6.44,5.82,13,4.53,20.24,1-4.13,7.48-14.35,7.59-16.58,16.31-2.18,8.57-1.06,18.12-3,26.92,19.79,1.46,32.38-20.79,51.41-22.27-3.54-4.69-10.85-1.75-15.36-.62-7.08,1.77-13.34,2.67-20.26-.27-9.73-4.13,9.76-9.18,13.38-10.32,13.46-4.22,27-9.53,29-25.16-4.62,3.49-15.61,10.47-20.2,3.81-5-7.21.66-16.92,5.84-22,6.43-6.36,14.1-11,22.15-15.06,9-4.47,17.22-7.45,22.09-16.74A45.36,45.36,0,0,1,202.28,24.15ZM89.77,107c0-9.55-13.19-9.72-13.19,0C76.58,116.51,89.77,116.67,89.77,107Zm13.36-21.53s-10.06,4.16-7.45,16.44h0s2,9.21,12.29,6.75C109.34,94.69,103.13,85.43,103.13,85.43ZM78,163.92c-12.85,0-25.86.9-38.12-3.72A58.65,58.65,0,0,1,4.54,121.89C-.75,103.49,3.33,82.55,16,68.07,21.48,61.87,30,54.57,38.32,53c4.7-.89,9.92-.21,14.68-.21A66.06,66.06,0,0,0,39.11,69.42c-1.6,2.75-10.9,26.42-4.42,24.6,1.64-.46,3.56-6.45,4.21-7.74,2-4,4.15-8,6.48-11.92,4.58-7.6,9.92-14.14,18-18.23,16.85-8.52,34.93-.31,45.05,14.25,11.21,16.12,13.73,37.88,8.71,56.63C112.32,145,98.41,163.92,78,163.92Zm38.09-55.67c0-20.87-12.26-48.65-36.63-48.65S42.84,87.39,42.84,108.25h0c0,20.88,12.26,48.66,36.63,48.66S116.1,129.12,116.1,108.25Zm-18.71,9.86c-4,0-7.35,3.89-7.35,3.89h0c-6.31,7.43-.19,19.06-.19,19.06a38,38,0,0,0,10.24-8.68c2.33-2.88,5-6.32,3.54-9.85A7.42,7.42,0,0,0,97.39,118.11Z"/></svg>