<svg xmlns="http://www.w3.org/2000/svg" xmlns:xlink="http://www.w3.org/1999/xlink" viewBox="0 0 160.59 198.47"><defs><style>.a{fill:url(#a);}.b{fill:url(#b);}.c{fill:url(#c);}</style><linearGradient id="a" x1="40.61" y1="12.59" x2="119.36" y2="148.99" gradientUnits="userSpaceOnUse"><stop offset="0" stop-color="#309bff"/><stop offset="0.67" stop-color="#0a3f7a"/><stop offset="1" stop-color="#002859"/></linearGradient><linearGradient id="b" x1="80.62" y1="22.71" x2="80.62" y2="134.9" gradientUnits="userSpaceOnUse"><stop offset="0" stop-color="#50d4f4"/><stop offset="1" stop-color="#08f"/></linearGradient><linearGradient id="c" x1="82.36" x2="82.36" y2="198.47" gradientUnits="userSpaceOnUse"><stop offset="0" stop-color="#85ffed"/><stop offset="1" stop-color="#00c3ff"/></linearGradient></defs><title>freezer</title><circle class="a" cx="80.3" cy="81.33" r="80.3"/><path class="b" d="M71.48,91.23c1.84,1.06-.34,2.38-.34,2.38a90.71,90.71,0,0,1-10.75,5.28s-1.34.63-3.12-1.4a37.05,37.05,0,0,1-4.39-5.9A36.58,36.58,0,0,1,50,84.84c-.88-2.56.35-3.41.35-3.41a89.79,89.79,0,0,1,9.94-6.67h0a3,3,0,0,1,1.24-.35c.51,0,1,.26,1,1.25a17.72,17.72,0,0,0,9,15.57Zm8.87-26.18A10.75,10.75,0,0,0,69.6,75.8h0A10.75,10.75,0,1,0,80.35,65.05ZM86,135.31a103.58,103.58,0,0,0,5.8-27.43A6.64,6.64,0,0,0,87.94,106a31.73,31.73,0,0,1-17.66-.61,6.62,6.62,0,0,0-2.94,3.13c1.31,6.49,4,18.22,7.92,26.5A13.72,13.72,0,0,0,86,135.31ZM20,85.78s18,11.36,22,38.29a56.69,56.69,0,0,0,17.22,9.3s3.77,1.42,2.6-2.37c-2.86-9.2-4.39-19.71-5.13-25A9.4,9.4,0,0,0,54,100.34a34.79,34.79,0,0,1-7.82-13.8c-1-3-2.57-3.92-2.57-3.92-3.94-2.78-12.84-9.45-19.56-17.24-.8-.93-1.45-1.25-2-1.25-1.21,0-1.67,1.81-1.67,1.81h0C18.19,73.87,20,85.78,20,85.78Zm50.23-39a91.91,91.91,0,0,0-.81,12s.06,2.54,1.9,1.49a17.7,17.7,0,0,1,18,0c1.85,1.05,1.9-1.49,1.9-1.49a90.63,90.63,0,0,0-.81-12s-.12-1.48-2.77-2a37.28,37.28,0,0,0-7.31-.86,37.36,37.36,0,0,0-7.3.86h0C70.34,45.31,70.22,46.79,70.22,46.79Zm-22.55,3h0A7.08,7.08,0,0,1,45.83,54c-1.18,1.33-3.56.76-5.11.35-1.31-.35-1.23,1.06-1.23,1.06.22,3.62.25,8.69.25,8.69a73.33,73.33,0,0,0,7.32,5.46,6.57,6.57,0,0,0,3.52-2.36,31.31,31.31,0,0,1,9.23-14.8,6.56,6.56,0,0,0-1.22-4.06c-1.77-.59-5.76-1.83-8.2-2.56a2.09,2.09,0,0,0-.57-.09C47.71,45.71,47.67,49.81,47.67,49.81Zm52.67-23.38c-7,3.63-15.83.71-15.83.71a5.48,5.48,0,0,1-3.36-4.27c-1.84,0-3.67,0-5.51-.16h-.27c-6.93,0-11.77,7.06-11.77,7.06h0a6.79,6.79,0,0,1-6.74,2.11c-4.29-1-7.56,2.29-7.56,2.29,6.8,2.08,13.08,4.59,16.74,6.08a9.39,9.39,0,0,0,6.21.48,34.85,34.85,0,0,1,15.86.12c3.13.66,4.68-.27,4.68-.27A122.09,122.09,0,0,1,114.24,33c.81-.19,1.61-.37,2.42-.54C116.66,32.42,107.36,22.81,100.34,26.43Zm38.83,36.73a2.63,2.63,0,0,0-1.76,1.06h0c-6.53,7.08-14.87,13.66-19.12,17a9.32,9.32,0,0,0-3.52,5.13,34.94,34.94,0,0,1-8,13.68c-2.13,2.38-2.11,4.18-2.11,4.18-.44,4.8-1.77,15.84-5.15,25.56-1.36,3.9,2.29,2.86,2.29,2.86,8-2,17.41-9.54,17.41-9.54s.84-21.26,22.16-38.21a56.75,56.75,0,0,0-.56-19.57S140.41,63.16,139.17,63.16ZM103.47,97.4a36.52,36.52,0,0,0,4.39-5.89,36.88,36.88,0,0,0,2.91-6.75c.88-2.56-.35-3.41-.35-3.41a90.74,90.74,0,0,0-9.94-6.67,3,3,0,0,0-1.24-.35c-.51,0-1,.26-1,1.25h0a17.72,17.72,0,0,1-9,15.56c-1.84,1.07.33,2.39.33,2.39a93.21,93.21,0,0,0,10.76,5.28S101.69,99.44,103.47,97.4Zm11.08-26.79c4.77-4.21,13.23-12.09,18.24-19.32a13.14,13.14,0,0,0-4.9-9.06,99.2,99.2,0,0,0-25.61,8.35h0a6.37,6.37,0,0,0,.28,4.11,30.54,30.54,0,0,1,8,15A6.39,6.39,0,0,0,114.55,70.61Z"/><path class="c" d="M73.21.4C78.45.14,84.64-.4,89.83.5c4.08.72,7.74,2.6,11.89,3.27,4.55.74,7.18.51,11.17,2.91,4.78,2.89,9.72,3,14.58,5.36,3.28,1.57,8.51,3.79,11.16,6.18s4.49,6.89,6.87,9.86c3.93,4.9,14.42,19.74,3.15,24.15-3.29,1.29-4.09-.6-5.83-3.37-.72-1.16-1.24-3.27-2.68-3.84s-2.72,1.32-4.13.68c-2.88-1.33-1.12-5.68-3.27-7.47-2.48-2.07-4.34.76-7.18-1.8s-4.27-6.46-7.77-8.84c-3.22-2.19-7.2-4.83-10.51-6.66-5.3-2.95-5,3.41-9.56,3.28-2.18-.07-1.27-.4-2.55-1.41s.08-2.6-2.3-2.67-1.32,1.8-2.44,2.77c-3.41,3-3,2.22-4.73-1.87-2.86-6.88-12.31-5.3-17.87-2.41a16.14,16.14,0,0,0-6.45,6.16c-1.88,3-1.35,3.14-5.09,3.14-3,0-6-.84-8.46,1.6-3.08,3.07-.3,19.85-3.35,20.32-2.68.4-2.74-4.38-3.72-5.8-3.21-4.7-5.13.94-5.36,4.45-.18,2.67,1.1,23.88-3.64,13.35-1-2.22-1.68-8.83-5.89-6.61-2.38,1.25-.48,7.06-3.76,5.82C20.4,60.4,19.83,50.9,18.35,49c-2.91-3.79-6.27-5.52-7.11-10.67-.56-3.49-.19-8.2,2-11.13,2.72-3.6,7.88-4.23,11.48-6.64s6.41-6.28,10.59-8.16c1.78-.79,3.79-.82,5.52-1.61,2-.93,3.43-2.51,5.51-3.4C54.65,3.81,64.18.87,73.21.4Zm67.35,142.51c.76-8.8-7.6-14.84-11.38-4.64-2.16,5.85-1.86,5.58-6.93,8.1-3.19,1.58-3.83,5.66-7.26,6.95-3.75,1.41-8.38-1.39-12.23-1.48a43,43,0,0,0-16.65,2.89c-5.78,2.24-9.67,2.42-15.9,1.78-4-.41-9.4-1.17-12.64,1.84,2.43,3.15,7,3.18,10.57,3.89,3.85.78,9.27,4.64,12.92,4.55,4.24-.09,6-4.67,10.45-4.83,1.79-.07,3.43.92,5.19.95,2.07,0,3.57-1,5.54-1.43,9.71-2,7.82,7.18,9.41,13.7,2.59,10.54,3.39-8.33,5-7.63s2.1,9.63,2.26,11.23c.53,5.28.07,10.62.59,15.87.38,3.89,2.52,5.75,3.43.94.68-3.6.17-7.78.25-11.47,0-1.52-.81-8.92.45-9.64,2.34-1.34,2,3.78,2.69,4.92,2.06,3.52,2.88,2.5,3.48-1.44.89-5.83.77-11.49,2.33-17.21l.8.06a84.2,84.2,0,0,1,1.89,14.77c.09,1.45-.5,5.89,1.27,6.4,3,.84,2.24-2.44,2.31-4.27.24-6.11-.27-12.27-.12-18.39C138.47,153.7,140.08,148.45,140.56,142.91Z"/></svg>