<svg xmlns="http://www.w3.org/2000/svg" xmlns:xlink="http://www.w3.org/1999/xlink" viewBox="0 0 207.67 187.69"><defs><style>.a{fill:url(#a);}.b{fill:url(#b);}</style><linearGradient id="a" x1="60.41" y1="-11.86" x2="161.22" y2="162.75" gradientUnits="userSpaceOnUse"><stop offset="0" stop-color="#00b219"/><stop offset="0.53" stop-color="#00770c"/><stop offset="1" stop-color="#005604"/></linearGradient><linearGradient id="b" x1="104.66" y1="3.53" x2="104.66" y2="183.92" gradientUnits="userSpaceOnUse"><stop offset="0" stop-color="#99ffa7"/><stop offset="1" stop-color="#00b21d"/></linearGradient></defs><title>grappling-hook</title><path class="a" d="M134.76,187.82c-28.45-16.94-57.43-41.61-64.59-75.58C68.84,105.91,65.74,72.08,77,73.1c8.23.76,16,11.14,22.81,14.9,3.65,2,8.48,3,12.5,5.33,3.73,2.2,7.27,4.59,10.59,6.42,3.81,2.1,8,3.76,11.62,6.29,1.22.84,2.79,2.15,4,2.9,2.93,1.8,4.3,2,7.4,3.48,11.54,5.55,13.44,18.19,22.22,26.51,11,10.4,36,14.5,39.33-5.94,2.51-15.44-15.53-23.77-28.13-25.09,3.26,6,9.75,7.59,14.41,12,6.33,6,4.62,17.48-5.75,16.77-12.25-.85-19.24-20-28-26.67-11.16-8.5-23.76-15.45-35.12-23-7.13-4.73-14.34-10-21.24-14.63-5.39-3.57-13.3-7-17.92-11.13-3.65-3.3-4.3-3.72-.51-6.72,4.06-3.21,11.18-4.57,16-5.76,34.26-8.37,71.69-.79,104.53,9.77C173.83,27.5,123.8,8.54,80.25,26c-2-11.74,7-19.86,17.64-22.34C85.63-4.34,68.23,2.05,63.33,15.66c-2.33,6.48-.39,11.61,0,18,.11,2,1.29,6.84-2.2,7.6-3.72.81-5.91-9.49-9.18-11.52-1.83-1.12-4.72-1.48-6.75-2-14.67-3.9-30-5.53-45.15-5.89C8.55,34.48,21.12,44.5,33.69,52.94c4,2.65,5.34,3.42,9.79,4.14-.35-.06,6.11-1.67,6,.81-.14,2.83-4.56,2.25-6.27,2.53C32.65,62.14,22.45,64.3,17.62,75.25c-4.5,10.18-1.74,22.59,7.56,29,0,0-4.15-20.8,13.86-24.88C39,79.34,21,164.13,134.76,187.82Z" transform="translate(0 -0.13)"/><path class="b" d="M78.85,26.83a12,12,0,0,0-1.76.92h0C75.59,6.19,89.89,4.33,89.89,4.33,75.77,12,78.85,26.83,78.85,26.83ZM49.65,54.68s17.09,13.4,22.3,9a9.77,9.77,0,0,0,2.63-3.13C78.29,53.31,71.5,50,71.5,50L57.39,42.56a13.52,13.52,0,0,1-1.5,4.93h0A15.91,15.91,0,0,1,49.65,54.68ZM41.9,72c2.14-5.07,4-8.65,4.73-9.92C7.08,68.4,21.18,98.32,21.18,98.32h0s-4.35-18.16,17-23.83C38.22,74.49,41.05,74,41.9,72ZM22.77,96.55c1.47-14.09,13.3-17.92,16.09-18.64a1.14,1.14,0,0,0,.76-.71c.14-.4.32-.94.56-1.47C20,82.1,22.77,96.55,22.77,96.55ZM90,156.36C46.88,106.9,63.86,79.7,63.86,79.7s-4.23,20.42,5.31,38.79c-7.3-26.13,1.52-42.9,1.52-42.9-3.52,1.92-9.78.32-9.78.32,27.83-6.66,18.56-26,18.56-26a19.23,19.23,0,0,1,2.45,4.26s.14.53.56.25c2.31-1.53,38.59-25.34,115.05,0-65.47-23.68-105.86-9-105.86-9s43.66-20.56,105.6,7.39C113.4.59,69.72,33.91,69.72,33.91a18,18,0,0,1,5-4.52,1.58,1.58,0,0,0,.88-1.53C72,5.2,90.91,2.18,90.91,2.18a25,25,0,0,0-2.54-.11c-7.63,0-29.38,2.7-23,34.31h0A2.18,2.18,0,0,1,65,38.05c-.84,1.27-2.72,3.87-2.72,3.87l11.06,6A10.61,10.61,0,0,1,63.13,66.51L51,58.88S36.63,81.64,43.8,113c0,0,12.05,51.31,76.93,70.09,0,0,2.16.58,3.12.79h0C106.29,172.8,90,156.36,90,156.36Zm101.75-42.94a36.17,36.17,0,0,0-5.83-1.64c2.25,1.47,6.63,4.44,9,6.15,5.37,3.91,7.24,11,3.67,16.62A12.15,12.15,0,0,1,182,138.22a38.85,38.85,0,0,1-14-13.32,52.7,52.7,0,0,0-9.08-11c-1.05-1.13-8.37-5.91-8.37-5.91a5,5,0,0,1-.52,3c-.84-4.58-3.33-6.13-3.33-6.13L131.34,95a5,5,0,0,1-.53,3.09c-.86-4.66-3.39-6.24-3.39-6.24L111,81.48a7.26,7.26,0,0,1-.85,3.81c-.81-5-5.36-8.37-5.36-8.37l-13.38-8.4c.63,4.08-.59,5.75-.59,5.75-1.21-6.54-4.76-8.76-4.76-8.76L81.82,62.7s-.65,4.73-4.36,7.28h0L96.79,81.23a8.79,8.79,0,0,1,1.08-4.88s.66-.81,1.38.56c0,0,3.71,8,8.38,10.62l9.92,5.76a7.61,7.61,0,0,1,1-4.25s.59-.73,1.25.51c0,0,3.37,7.23,7.61,9.65l11,6.4a6.12,6.12,0,0,1,.79-3.41s.47-.58,1,.4c0,0,2.67,5.74,6,7.66l5,2.91a36.47,36.47,0,0,1,11.43,12.08,44.57,44.57,0,0,0,9.55,12.63s7.77,7,17.94,6.68a15.41,15.41,0,0,0,12.66-8.25,15.19,15.19,0,0,0,1.53-9.39S202.84,118.15,191.78,113.42ZM38.36,51.33h0a10.82,10.82,0,0,0,12.45-6.58,10.83,10.83,0,0,0-3.67-13.61S31.4,25.31,4.74,24.68C23.38,43.79,38.36,51.33,38.36,51.33Zm83.34,47a1.16,1.16,0,0,0,.6-1.48l-.3-.55c-1.54-2.79-2.92-5.53-2.92-5.53s-.67,4.44,1.09,7.17h0A1.14,1.14,0,0,0,121.7,98.29Zm20.4,12.18a1.07,1.07,0,0,0,.54-1.36l-.27-.5c-1.41-2.54-2.66-5-2.66-5s-.62,4.06,1,6.55A1,1,0,0,0,142.1,110.47ZM101.55,86.79a1.4,1.4,0,0,0,.73-1.8l-.36-.67c-1.88-3.4-3.55-6.73-3.55-6.73s-.82,5.41,1.32,8.73A1.38,1.38,0,0,0,101.55,86.79Z" transform="translate(0 -0.13)"/></svg>