<svg xmlns="http://www.w3.org/2000/svg" xmlns:xlink="http://www.w3.org/1999/xlink" viewBox="0 0 215.48 146.17"><defs><style>.a{fill:url(#a);}.b{fill:url(#b);}.c{fill:url(#c);}</style><linearGradient id="a" x1="49.07" y1="-8.84" x2="154.63" y2="173.96" gradientUnits="userSpaceOnUse"><stop offset="0" stop-color="#ff3131"/><stop offset="0.67" stop-color="#780a0a"/><stop offset="1" stop-color="#560000"/></linearGradient><linearGradient id="b" x1="54.71" y1="0.15" x2="103.62" y2="125.6" gradientUnits="userSpaceOnUse"><stop offset="0" stop-color="#f88"/><stop offset="1" stop-color="red"/></linearGradient><linearGradient id="c" x1="163.17" y1="79.06" x2="189.07" y2="145.49" xlink:href="#b"/></defs><title>haymaker</title><path class="a" d="M45,119.51C22.86,109.87,1.84,88.4.16,63.18-1,45,4.7,26.45,18.45,14,27.13,6.22,38.11.85,49.85.06,57.58-.47,64.64,2.7,72,2.72c27.27.07,51.92,19.25,52.15,48.09,7.66.87,22.28,1.73,25,10.6,1.12,3.59,2,17-.41,19.82-2,2.3-3.42.16-4.58.87-2,1.22-1.39,2.53-1.89,5.24-1.41,7.72-6.05,12.6-9.48,19.16-.13.24,1.24,1.14.82,2.09s-3.36,2.65-4.34,3.3a45.3,45.3,0,0,1-11.83,5.69c-8.73,2.63-16.65-4.76-23.93-9C87.45,117.22,72.51,131.53,45,119.51ZM155.16,77.88l6-3.56h0c4.75-2.83,8.57,7.26,9,10.27,10.42-2,19.22,3.72,21.67,14,9.16-2.7,15.61,2.72,17.26,11.22,0,0,0,0,0,0,1.58-.76,3.78-1.55,5.11-.07.43.48,1.45,5.26,1.15,5.84-1.09,2.1-4,.25-5.55,1.9-1.2,1.32-.17,2.94-.13,4.58.21,7.82-6.05,28.06-17.21,23.38-11.21-6.84,1.35-27.22,9.8-30.83,3.22-1.25-3.45-8.05-6.26-7.86-5,.34-3.1,2.71-2.81,6a29.59,29.59,0,0,1-2.86,14.6c-2.91,6.15-9.59,15.39-17.51,12.68-8.41-2.88-6.22-14.57-3.83-20.82-4.14,7.92-13.3,18-23.12,12.69-8.21-4.42-7.49-15.19-5.09-22.82,2.57-8.19,8.79-16.75,17.17-19.38C157.83,86.19,150.72,80.72,155.16,77.88Zm53.8,32a.06.06,0,0,1,.06,0S209,109.89,209,109.92Zm-6.08,13.8c-3.54,1.52-10,14.65-7.43,15.94h0C197.8,140.7,204.21,126.37,202.88,123.72Zm-25.16-.9c-.93,2-4.12,9.56-.38,8.8,5-1,7-12.73,6.76-16.56A21.9,21.9,0,0,0,177.72,122.82ZM171,114.58c-.11.42-.25.82-.39,1.21,2.58-4.9,6.87-10.12,12.2-12.05h0c.93-5.84-6.76-11-11.35-6.32,2.24,5.41,1.09,11.74-.47,17.17ZM160.29,104a20.93,20.93,0,0,0-7.65,9.44c-.62,1.51-2.91,7.55-1,9.19h0c2.1.29,5-4.43,5.78-5.67A21.1,21.1,0,0,0,160.29,104Z"/><path class="b" d="M126.26,76c-1.19-.54-6.45,14.47-7.08,16-1.27,3.05-1.86,2.49.08,5,1.39,1.77,8.84,7.81,11.2,7.61,4.33-.36,10.14-15.82,10.09-20.47-.05-4.14-2.55-3.18-6.36-4.55A63.83,63.83,0,0,1,126.26,76Zm9.68,9.36c-3.74,2.31-5.06,2-4.63,6,.15,1.39,3.06,6.36,1.57,7.39-2.68,1.86-4.44-7.05-5.34-7.32-1.16-.36-4.07,4.82-5.72,3.41s2.82-4.72,3.37-5.49c1.71-2.39,1-1.11,1.33-3.78.07-.62-1-5.61.7-5.42s1.31,5,2.91,5.61C129.26,85.46,139.3,83.29,135.94,85.38ZM15,69.8S7.27,38.66,24.91,18.61h0C34.06,8.21,48.58,1.14,62.56,5c-10.78,4.55-13.91,19-11.4,29.43a30.58,30.58,0,0,0,22,22.23c10,2.64,22.08.66,29.57-6.92,1-1.06,4.64-4.72,4.48-6.49-.31-3.41-2.48.61-3.14,1.36a18.37,18.37,0,0,1-8.93,5.71,17.75,17.75,0,0,0,3.19-14.59c-.28-1.21-1-5-2.49-5.62-2.61-1.11.14,4.69.21,5.36.32,3.08-1.13,6.16-2.91,8.59-6.57,9-21.16,5.68-28.13-1.24A23.54,23.54,0,0,1,60.4,16.68c6.68-14.73,27.8-9.6,39.14-4,15.07,7.45,23.34,25.87,20.43,42.22a24.75,24.75,0,0,1-3.47,9.27c-1.1,1.7-8.43,7.52-6.5,8.81,1.69,1.11,7.08-4.94,8.22-6.28a27.57,27.57,0,0,0,5.64-12.07c6.24.3,13-.15,18.64,2.84,7.23,3.83,4.12,15.61,2.9,22.4-3.82-1.59-7.72-3-11.67-4.2-5.36-1.69-9.28-4.13-11.38,1.57-1,2.59-1.72,5.24-2.75,7.82s-4.64,7.47-4.77,10.14c-.15,3.26,4,5.67,6.51,7.32,3.19,2.13,10.23,3.06,6.78,7.49-2.58,3.33-9.76,5.26-13.88,5.46-6.36.29-13.59-6.6-18.68-10.13,5.72-10,4.41-23.27-1.16-33,3.71,19.55-15.14,36.59-33.34,37.6C39.72,111.14,19.19,89.83,15,69.8Z"/><path class="c" d="M167.47,117.27a30.64,30.64,0,0,0,1.23-3.09c1.77-5.92,2.55-12,.69-16a2,2,0,0,1,.22-2A9,9,0,0,1,185,103.32c0,.26-.07.58-.12.84a2,2,0,0,1-1.39,1.5c-3.64,1.2-7.49,5.17-10.63,10.12-.57.9-1.36,2.58-1.36,2.58-3.86,9-4,17.38,1.44,19.91s11.81-3,16.18-11.7c0,0,.78-1.68,1.11-2.7,1.77-5.59,2.27-11.19.84-14.76a1.65,1.65,0,0,1,.18-1.62,7.36,7.36,0,0,1,8.33-1.46,8.17,8.17,0,0,1,4.42,7.82q0,.34-.09.69a1.78,1.78,0,0,1-1.07,1.3s-1,.47-1.35.66c-2.8,1.46-5.7,4.72-8.24,8.78-.49.79-1.16,2.23-1.16,2.23-3.35,7.72-3.6,14.93.84,17s9.79-2.76,13.55-10.29c0,0,.67-1.45,1-2.32,1.48-4.55,2.06-9,1.18-12.05,0,0-.61-2.29.84-3a12,12,0,0,1,5-1.22l-1-5.69a7,7,0,0,0-3.61.78,1,1,0,0,1-1.72-.81C205,95.19,192,100.51,192,100.51a1.28,1.28,0,0,1-1.84-1c-4.66-17.62-20.65-11.81-20.65-11.81a1.26,1.26,0,0,1-2-.93,13.94,13.94,0,0,0-4.71-9.55l-6.17,3.37h0A12.46,12.46,0,0,1,161,90.37c.06,1.66-2.06,2.21-2.06,2.21-4.48,1.26-9.05,5.63-12.69,11.15a30.05,30.05,0,0,0-1.56,2.94c-4.37,10.22-4.05,20.06,3,23.33S162.44,127.19,167.47,117.27ZM202,133.51c-1.95,4.18-4.77,7.1-6.46,7.1a1.3,1.3,0,0,1-.51-.11h0c-1.57-.73-1.29-5.19.87-9.84s6.65-8.39,7.45-8S204.2,128.86,202,133.51Zm-18.31-7.89c-2.24,4.83-5.56,8.15-7.61,8.15a1.45,1.45,0,0,1-.66-.14h0c-1.92-.89-1.7-6.1.81-11.49s7.85-9.66,8.83-9.2S186.23,120.24,183.72,125.62Zm-33.08-.89c-2.48-1.16-2.49-7.23.37-13.37s9.37-10.82,10.63-10.23,1.87,8.58-1,14.72c-2.52,5.42-6.44,9.08-9,9.08a2.4,2.4,0,0,1-1-.2Z"/></svg>