<svg xmlns="http://www.w3.org/2000/svg" xmlns:xlink="http://www.w3.org/1999/xlink" viewBox="0 0 128.18 234.52"><defs><style>.a{fill:url(#a);}.b{fill:url(#b);}.c{fill:#85ffed;}</style><linearGradient id="a" x1="10.28" y1="18.15" x2="121.97" y2="211.61" gradientUnits="userSpaceOnUse"><stop offset="0" stop-color="#309bff"/><stop offset="0.69" stop-color="#0a3f7a"/><stop offset="1" stop-color="#002859"/></linearGradient><linearGradient id="b" x1="64.43" y1="116.26" x2="64.43" y2="230.34" gradientUnits="userSpaceOnUse"><stop offset="0" stop-color="#43afff"/><stop offset="1" stop-color="#0079e3"/></linearGradient></defs><title>magnetizer</title><path class="a" d="M92,8.44h.11a.64.64,0,0,1,.51.26,1.86,1.86,0,0,1,.33,1l1,8.89a2.08,2.08,0,0,1-.11,1.08.75.75,0,0,1-.55.44.61.61,0,0,1-.6-.26,1.92,1.92,0,0,1-.33-1L91.4,10a2,2,0,0,1,.11-1.07A.7.7,0,0,1,92,8.44ZM67.31,234.52c22.74,0,42.48-11.89,52.32-29.32,0,0,17.88-30.13,1.93-70.42L107.25,94.6s-.49-1.83-3.24-1.47L88.17,95.7l1.91-13.8,9.59,9-4.79-67-5,36.53-9.59-9,3.19,44.76-19,12.22c-2.4,1.25-1.37,4.06-1.37,4.06l13.78,38.7a74.48,74.48,0,0,1,4.07,18.4,49.25,49.25,0,0,1-2.12,19.62c-.46,1.47-2.59,1.26-2.59,1.26-.75,0-1.48-.1-2.2-.17-31-3.25-28.94-36.7-28.94-36.7,1.3-17.43,11.58-41.17,11.58-41.17s3.09-6.94,5.71-12.07a3.09,3.09,0,0,0-1.12-4.21L47.77,87.54,49.65,74l9.59,9-4.79-67-5,36.53h0l-9.58-9,2.9,40.67-3.81-2.51a1.92,1.92,0,0,0-1.92,0L22.08,91.21a9.2,9.2,0,0,0-3.19,3.26l-2.37,4.82c-6.15,12.09-11.67,26.49-11.67,26.49A109.57,109.57,0,0,0,0,157.64V158c.05,26.88,10.25,44.53,10.25,44.53,10.73,19,32.25,32,57.05,32ZM76.21,15.4a.85.85,0,0,0-.23,0,.59.59,0,0,0-.42.17h0a.71.71,0,0,0-.2.66,2,2,0,0,0,.51.95L81.59,24a1.91,1.91,0,0,0,.84.65.6.6,0,0,0,.64-.12.72.72,0,0,0,.21-.67,2.05,2.05,0,0,0-.51-1L77,16.05A1.82,1.82,0,0,0,76.21,15.4ZM51.66.26A.67.67,0,0,0,51.17,0H51a.7.7,0,0,0-.53.44,2,2,0,0,0-.11,1.07l1,8.89a1.92,1.92,0,0,0,.33,1,.62.62,0,0,0,.6.26.75.75,0,0,0,.55-.44,2.1,2.1,0,0,0,.11-1.09L52,1.26A1.86,1.86,0,0,0,51.66.26ZM70.09.52a.71.71,0,0,0-.43.14h0a2,2,0,0,0-.66.85l-3.91,8a1.92,1.92,0,0,0-.26,1,.63.63,0,0,0,.38.54.73.73,0,0,0,.69-.09,2,2,0,0,0,.67-.86l3.92-8a1.89,1.89,0,0,0,.25-1,.63.63,0,0,0-.39-.53A.56.56,0,0,0,70.09.52Zm40.56,8.56h0a2,2,0,0,0-.66.86l-3.92,8a2,2,0,0,0-.25,1,.61.61,0,0,0,.38.53.7.7,0,0,0,.69-.08,2.09,2.09,0,0,0,.67-.86l3.92-8a1.91,1.91,0,0,0,.25-1,.65.65,0,0,0-.64-.59A.77.77,0,0,0,110.65,9.08ZM34.87,8.72l5.72,6.86a1.84,1.84,0,0,0,.84.65.6.6,0,0,0,.64-.12.71.71,0,0,0,.21-.67,2.05,2.05,0,0,0-.51-1L36.05,7.63A1.92,1.92,0,0,0,35.21,7a.85.85,0,0,0-.23,0,.59.59,0,0,0-.42.17h0a.71.71,0,0,0-.2.66A2,2,0,0,0,34.87,8.72Z" transform="translate(0 0)"/><path class="b" d="M37,130.78l11-7.11h0c3.16-.86-.2,5.63-.67,7.15a142.2,142.2,0,0,0-4.25,16.63A50.83,50.83,0,0,0,42,158.58c.33,9.46,3.25,19.48,10,26.39a31.46,31.46,0,0,0,18.47,8.81c3.14.43,6.34-.51,3.57,2.22-3.23,3.19-10.37,3.91-14.66,3.89a31.19,31.19,0,0,1-30.77-26.06c-1.19-7.35-.09-15,1.31-22.18C31.09,145.8,32.17,134.12,37,130.78Zm84.35,11.09-6.82-19.1-15.29,9.82h0C111.15,166,117.89,208,81.37,229.15,121.43,221.06,132.24,176.59,121.35,141.87ZM8.15,129h0c-9.61,31.46-5.54,73.49,24.6,92.59,16.13,10.21,37.46,14.12,53.16,1.42,16.71-13.51,22.48-33.8,20.3-54.57-1.28-12.31-5-23.57-9.18-35.11l-22.57,3.92C79.44,149.41,84,161.64,84,175c0,18.53-8.41,31-28.1,28.47-16.94-2.16-29.07-16-30.23-32.73-1-13.86,3.26-28.12,7.37-41.21L12.44,116.26h0C10.13,122.42,8.15,129,8.15,129Z" transform="translate(0 0)"/><path class="c" d="M45.18,93,42,48,48.43,54c2,2,2.65-.32,2.65-.32l2.8-20.27,3.21,45-6.46-6.07c-2-2-2.65.32-2.65.32L45.18,93Zm13,4.25-10.82-7-.69,5a1.71,1.71,0,0,1-1.59,1.62,1.66,1.66,0,0,1-1.6-1.61l-.57-8-5.49-3.59L23,93l20.81,13.42L58.22,97.2Zm-15.4,11.62L21.92,95.19l-8.77,18.43,20.59,13.3,9.08-18.1Zm2.25,1.09-9.23,18.43,14.61-9.43a3.54,3.54,0,0,0,1.23-1.38c1.77-4.37,3.06-7.17,3.06-7.17s3.25-6.87,6-11.93l-14,9a7.65,7.65,0,0,0-1.69,2.47M88.41,80.64s.43-2.57,2.65-.32l6.46,6.07-3.21-45-2.8,20.26s-.65,2.27-2.65.33L82.4,55.93l3.23,43.36,2.78-18.65ZM96,130.39l-8.29-23.11-22.56,3.8,8.28,23.22L96,130.39Zm2.24-.53L113.57,120l-8.31-23.29L90,106.57Zm-7.42-26.12L104.43,95,87.89,97.81l-.73,3.75a1.71,1.71,0,0,1-1.6,1.62A1.65,1.65,0,0,1,84,101.57L83.7,99.2l-13.61,8.74,14.43-2.36a21.44,21.44,0,0,0,6.34-1.84" transform="translate(0 0)"/></svg>