<svg xmlns="http://www.w3.org/2000/svg" xmlns:xlink="http://www.w3.org/1999/xlink" viewBox="0 0 237.59 181.52"><defs><style>.a{fill:url(#a);}.b{fill:url(#b);}.c{fill:url(#c);}.d{fill:url(#d);}</style><linearGradient id="a" x1="40.08" y1="13.77" x2="159.49" y2="220.59" gradientUnits="userSpaceOnUse"><stop offset="0" stop-color="#f3f"/><stop offset="0.46" stop-color="#9e16b0"/><stop offset="0.7" stop-color="#760a90"/><stop offset="1" stop-color="#550075"/></linearGradient><linearGradient id="b" x1="193.34" y1="145.28" x2="169.22" y2="176.72" gradientUnits="userSpaceOnUse"><stop offset="0" stop-color="#f683ff"/><stop offset="1" stop-color="#ff83ed"/></linearGradient><linearGradient id="c" x1="46.8" x2="46.8" y2="126.28" gradientUnits="userSpaceOnUse"><stop offset="0" stop-color="#f683ff"/><stop offset="1" stop-color="#e91dff"/></linearGradient><linearGradient id="d" x1="136.6" y1="88.79" x2="136.6" y2="149.05" gradientUnits="userSpaceOnUse"><stop offset="0" stop-color="#ff83ed"/><stop offset="1" stop-color="#f800ff"/></linearGradient></defs><title>plunger</title><path class="a" d="M63.46,100.94c2.91-1.71,10.38,4.08,13.27,5.19,3.51,1.36,5.51-.43,8.77.26,4.66,1,10.11,5.34,14.29,7.55l33.69,17.79c-1.73,5,4.11,9.7,8.37,6.22-.14,5.47,5.68,6.74,9.41,4-1,5.54,4.05,5.47,7.28,7,2.53,1.17,5.06,3.51,7.31,5.22,5.85,4.47,10.8,9.93,16.45,14.64,8.32,6.93,17.92,10.45,28.57,11.73,5.39.66,30.85,4,26.14-6.52-2.36-5.28-12.32-3.23-16.79-3.39a87.56,87.56,0,0,1-13.13-1.3c-9.92-1.87-17-7.09-24-14.05a8.81,8.81,0,0,0,4.59-13.7c-2-2.6-5.53-4.12-8.26-5.77,6.26-5.53-1.84-12.27-7.94-8.1a5.6,5.6,0,0,0-8.68-6.81c1.18-3.79-1.58-7.91-5.63-7.57-3,.26-4.48,4.06-7.05,4.4-1.35.17-3.81-2-5.06-2.71L115.8,97.28l-14-8.47c-1.58-1-4.77-2.08-5.9-3.57-1.72-2.26-1.07-4.68-3.24-6.83-2.93-2.92-8.22-4.16-10.85-7.22s-.16-5.69.85-10a56.28,56.28,0,0,0,1.54-15.3c-.32-7.51-2.48-14.43-5.53-21.24-2.75-6.16-.59-13-4.16-18.93-6-10-14.1-3.48-20.23,2.93C40.85,22.73,30.79,40.51,22,57.71c-9,17.65-18.13,37-21.22,56.8-.67,4.29-2,11.51,2,14.66,4.52,3.57,12.14,1.07,16.29-1.6,3.77-2.43,5.35-3.78,9.75-4.63a60.67,60.67,0,0,0,9.84-2.69A55.37,55.37,0,0,0,63.46,100.94Z"/><path class="b" d="M169.11,123.88c2.13,4.13-7.3,8.26-9.72,9.86s-9.51,8.31-12.6,7.43c-7-2,4.53-8.58,6-9.59l12.59-8.67h0A2.57,2.57,0,0,1,169.11,123.88Zm36.8,53.7c7,1.9,19.14,3.41,26.05,1.66,2.56-.65,4.81-2.5,1.66-4.76-1.12-.8-3.83-.35-5-.37-4.42-.06-8.81,0-13.22-.3-11.32-.89-20.94-4.23-29.53-11.85-4.27-3.79-8.26-7.87-12.72-11.45-1.14-.92-5.09-4.86-6.78-5-1.06-.06-3.64,2.1-4.65,2.69,8.17,4.8,14.55,11.78,21.61,18A49.83,49.83,0,0,0,205.91,177.58Zm-50.7-36.41c-2.42,1.46-.8,4.32,1.36,4.56,1.32.15,1.35-.36,2.46-.79,3.1-1.21,6.11-3.53,9-5.19,2.62-1.51,5.74-2.81,8.11-4.69.71-.56,1.7-.78,2.15-1.68,1.13-2.28-.81-5.63-3.51-4h0Zm-17.6-4.55c3.1,1.59,11.39-7,13.56-8.62,1.06-.79,15.54-11,6.6-11.65-3.31-.27-9.42,6.71-11.7,8.49C144.33,126.19,131.85,133.61,137.61,136.62Z"/><path class="c" d="M27.41,112.81c8-10.11,17-24.4,25.45-40.86h0C62.23,53.64,69,36.27,72.19,23.34c0,0,20.29,19.46,2.44,54.35L72,82.86C56.26,113.59,32.78,113.3,27.41,112.81ZM92,79.53a116.49,116.49,0,0,0-12.28-8q-1.61,3.54-3.37,7h0l-2.65,5.17c-2.27,4.45-4.51,8.33-6.69,11.75,1.86,1,4.89,2.57,8,4.07,0,0,9,4,13.8-4.92L92.23,88C95.16,82.25,92,79.53,92,79.53ZM67.21,0A3.85,3.85,0,0,1,69,.4c7.73,4-.78,36-19,71.63s-39.25,61.26-47,57.3.78-36,19-71.62C39,24.54,58.38,0,67.21,0ZM24.82,59.16C11,86.26,3.54,110.18,8.27,112.6h0a1.8,1.8,0,0,0,.87.2c5.5,0,19.68-19.28,32.79-44.89,13.87-27.1,21.28-51,16.55-53.44S38.69,32.06,24.82,59.16Zm1.48.75h0c-12.4,24.23-19.74,45.26-16.39,47S26,90.35,38.42,66.11s19.74-45.26,16.39-47a1.17,1.17,0,0,0-.49-.11C50.35,19,38.16,36.74,26.3,59.91Z"/><path class="d" d="M137.46,127.56,88,101.2a11.28,11.28,0,0,0,3.37-4.15l3.06-6h0a10.62,10.62,0,0,0,.88-2.29l52.4,30.75Zm45.27,12.52L177.49,137l-10.7,6.18h0l11.28,6a4.86,4.86,0,0,0,6.54-2.11A5.4,5.4,0,0,0,182.73,140.08Z"/></svg>