<svg xmlns="http://www.w3.org/2000/svg" xmlns:xlink="http://www.w3.org/1999/xlink" viewBox="0 0 212.63 176.83"><defs><style>.a{fill:url(#a);}.b{fill:url(#b);}</style><linearGradient id="a" x1="44.42" y1="2.63" x2="137.42" y2="163.7" gradientUnits="userSpaceOnUse"><stop offset="0" stop-color="#ff9700"/><stop offset="0.43" stop-color="#d87200"/><stop offset="0.79" stop-color="#c05b00"/><stop offset="1" stop-color="#b75300"/></linearGradient><linearGradient id="b" x1="107.1" y1="5.09" x2="107.1" y2="165.27" gradientUnits="userSpaceOnUse"><stop offset="0" stop-color="#ffd150"/><stop offset="1" stop-color="#ffa300"/></linearGradient></defs><title>power-hitter</title><path class="a" d="M67.22,131.25c5.92-.87,11.86-3.23,17.77-1.58,9.23,2.57,17.29,9.44,24.57,15.3,11.1,8.92,21.64,18.94,33.21,27.24,3.94,2.84,8,5.26,12.77,4.47,10.46-1.73,21.71-7.22,30.81-12.37,11.7-6.63,24-16.57,26-30.73.89-6.2-.2-14-3.29-19.54-2.44-4.4-6.34-5.63-10.72-7.63-6.95-3.18-13.87-6.41-20.81-9.62C164,90.54,149.32,85.35,136.38,78,132,75.49,128.73,70.31,125,66.8c-2-1.9-6-4.37-7.25-6.79-1.57-3-.58-7.15-.76-10.53-.32-5.92-1.45-13-4.53-18.15-2.95-5-10.58-9.56-16-8.26S85,27,79.27,25.18c-6.37-2-12.55-8.33-18-12.08C52.51,7.11,38.61-1.82,27.34.33,21,1.54,22.43,5.21,22.48,10.43c.06,6.81-3.51,12.49-8.45,17C9.35,31.62,2.85,31.82,2.57,39S8.05,50.86,8,57.77A22.08,22.08,0,0,1,4.78,68.69C3,71.79-.27,74.05,0,77.85.54,84.76,8.35,88,10.59,93.68,13.38,100.83,5.68,107.79,9,115c3,6.51,12.09,7.06,17.78,10,6.72,3.46,10.63,8.78,19.16,7.63,3.88-.52,5.87-1.26,9.8-.83A44.85,44.85,0,0,0,67.22,131.25Z"/><path class="b" d="M81.28,39.06a73.63,73.63,0,0,1-8.5,20.59C70.57,63.51,68.72,67,71.26,71.1c2.42,3.88,7.1,8,11.49,9.34,5.81,1.76,10.18-7.56,12.33-11.67,4.64-8.83,12-19.45,12.69-29.79.25-3.47.28-6.43-2.72-8.45-2.79-1.89-6-4.64-9.45-3.77-3.1.77-5.69,2.31-9,2.62-3.86.37-7.71-.32-11.53-.73a21.17,21.17,0,0,0,4.6,4.73C82.39,35.36,82.08,35.58,81.28,39.06Zm1,17.62c1.42-.63,4.92,2.5,4.33,3.32-2-1.18-2.59-1.84-4.47-.16-1,.88-5.54,5.11-5.61,6.34s3.32,3.85,4.2,4.55a24.08,24.08,0,0,0,6.66,3.63c-.38.9-4,.35-5,.19a8.21,8.21,0,0,1-6.4-4.15C73.13,65.49,77.41,58.85,82.31,56.68Zm5.88,66.75c3-2.19,4.8-5.68,7.62-8,1.32-1.09.58-1.15,2-.66a7.84,7.84,0,0,1,1.77,1.32l4.83,3.57c1.18.87,3.79,2.17,4,3.47.31,1.5-1.67,5-2.18,6.54-3.5-2.89-8.08-5.65-12.8-5.49a11.77,11.77,0,0,0-3.4.77C88.79,125.35,85.09,125.5,88.19,123.43ZM132,79.3c-3.11-1.67-5.37-4-7.82-6.44l-5.28-5.33c-1.66-1.68-3.45-4.35-5.71-5.06.61,6.2,1.33,12.39,1.86,18.59a14.59,14.59,0,0,1-3.55,10.57c-2.62,2.87-8.49,3.5-12.07,3.81a35.85,35.85,0,0,1-9-.33c-1.15-.19-6.63-2.4-5.77.26.32.95,3.34,2,4.16,2.42,2.24,1.18,4.48,2.34,6.71,3.54a167.13,167.13,0,0,1,15.56,9.28c3.47,2.38,1.11,3.84,1.73,7.3s3.06.63,5.18.4c2.8-.29,5.39,3.1,7.39,4.73,2.64,2.14,5.31,4.25,8,6.3,7.53,5.72,15.71,10.65,23.09,16.55-8.08,1.78-12.24-.47-18.57-4.8-7.23-5-14.59-9.62-22.16-14-1.45,3.11-3.12,6.21-4.37,9.4-1.57,4,.54,1,2.57,1,2.5,0,6.73,5.52,8.68,7.21a153.45,153.45,0,0,0,23.79,17.49c6,3.42,10.57,4.74,17.28,4a79.82,79.82,0,0,0,23.61-5.91c9.81-4.36,18.75-12,22.15-22.48,2.26-7,2.49-16.26-3.67-21.13-11.3-8.91-25.52-14.9-38.4-21.08C155.73,89.89,143.89,84.6,132,79.3Zm61.14,53.4L157,111.53l.16-.33c7.79,3.11,15.42,6.63,23.1,10,4,1.76,8,3.49,12,5.29C195.86,128.06,194.35,129.39,193.18,132.7ZM26.16,5.26c9-1.2,18.26,4,24.83,9.59,3.85,3.26,7.65,6.64,11.36,10.07s2.86,6.91,1,11.36c-1.36,3.31-4.62,8.16-8.49,6.87A41,41,0,0,1,43,36.91c-3.83-3-6.87-7-10.77-9.85-1.65-1.2-2.73-1.5-4.67-.71s-2.15,1.11-1.82,2.6,3,4.25,4,5.46a41.43,41.43,0,0,0,5,5,99,99,0,0,0,12.64,8.84C51,50.36,54.62,52,52.32,56.64A38.35,38.35,0,0,1,49,61.91c-1.82,2.54-3.6,1.38-6.43.52a81.31,81.31,0,0,1-13-5.68C26.09,55,21.34,51,17.56,54.32c-3.37,3,4.53,6.42,6.88,7.6,4.66,2.34,10,3.65,14.86,5.45,3.8,1.4,9.43,1.53,10.12,6.47.49,3.47-2.07,10.65-5.62,12.09-2.11.85-5.79-1.26-7.75-1.92-2.43-.81-4.85-1.68-7.29-2.46a38,38,0,0,0-16.92-1.21c0,.58,3.73,2.37,4.35,2.84a17.6,17.6,0,0,1,3.77,4,42.08,42.08,0,0,0,3.36,4.72c1.83,2,2.63,1.47,5.31,1.2a119.12,119.12,0,0,1,14-.36c2.63,0,10.23-.47,11.57,1.89.61,1.06,0,5.58-.23,6.87a10.64,10.64,0,0,1-1.79,4.7c-2.28,3.23-6,4.8-9.74,5.63-8,1.77-18.26,4.42-25.55-.78a8.87,8.87,0,0,1-3.74-9.22,49.62,49.62,0,0,1,1.27-5.08,7.23,7.23,0,0,1,.43-2c.21-.29,1.08-.32,1.24-.65,1.17-2.32-3.67-4.44-5.37-6.11a33,33,0,0,1-7-9.39c-1.88-4.13,1.91-5.24,4.39-8.17a18.5,18.5,0,0,0,4.63-10.88c.44-7.25-5.9-11.84-6.66-18.88-.18-1.68-.27-4.4.88-5.8s3.52-1.44,5.28-2.11a23,23,0,0,0,9.46-7.31A18.22,18.22,0,0,0,26,13.94C25.94,12,22.79,5.13,26.16,5.26Z"/></svg>