<svg xmlns="http://www.w3.org/2000/svg" xmlns:xlink="http://www.w3.org/1999/xlink" viewBox="0 0 269.38 164.08"><defs><style>.a{fill:url(#a);}.b{fill:url(#b);}.c{fill:url(#c);}</style><linearGradient id="a" x1="128.05" y1="34.03" x2="177.68" y2="143.96" gradientUnits="userSpaceOnUse"><stop offset="0" stop-color="#444"/><stop offset="0.24" stop-color="#404040"/><stop offset="1" stop-color="#383838"/></linearGradient><linearGradient id="b" x1="155.74" y1="22.46" x2="143.12" y2="148.95" gradientUnits="userSpaceOnUse"><stop offset="0" stop-color="#bfbfbf"/><stop offset="1" stop-color="#7f7f7f"/></linearGradient><linearGradient id="c" x1="140.91" y1="8.47" x2="130.25" y2="115.21" gradientUnits="userSpaceOnUse"><stop offset="0" stop-color="#fcfcfc"/><stop offset="1" stop-color="#c9c9c9"/></linearGradient></defs><title>spike</title><path class="a" d="M136.51,53.73a2.94,2.94,0,0,1-.26-1.46c.07-.9-.61-1.17-1.66-.61a8.17,8.17,0,0,0-2.93,3.28l-3.32-14.42-13.85,20.7-1.39.62a6.55,6.55,0,0,0-.39-.53L88.91,33,98.26,68.8a7.83,7.83,0,0,0,.7,1.78q-2.61,2.1-5.19,4.23l-22.4-8L82.44,84.05c-.91.54-1.81,1.08-2.54,1.54q-3.2,2-6.33,4.08a30.31,30.31,0,0,0-14.89-1.46c-12.27,1.89-21,7.52-21.27,7.91a10.19,10.19,0,0,0-.06,3.38,6.8,6.8,0,0,1,1.93-.88S43,105.15,43,105.18c-2.68,2.11-9.07,7.62-7.45,19.65,1,7.42,5,12.33,9.91,13.72,3.74,1,8.27,0,10.46-1.82,7,1.76,15.66,4,16.08,4.12.7.26,1,.22,1.35,0s6.22-3.15,6.22-3.15a15.86,15.86,0,0,0,2.77.85,63.16,63.16,0,0,0,7.35-1.91A2.23,2.23,0,0,0,90,136l1.94.46,1.77-.59,0-.75,3.12.52s.1,2.4.2,4.1c1,17.59,13,24.58,26.61,24.38,14.37-.21,23.13-18.31,22.74-30.65a33,33,0,0,0-2.2-10.66s4.27-.79,7.58-1.32c4.23,2.07,13.16,6.86,17.3,8.14a10.47,10.47,0,0,0,3.61.72c.94-.09,11.68-1.35,12.37-1.8.39-.27,4.07-6.7,6-9.85a59.2,59.2,0,0,1,10.2-.46,4.06,4.06,0,0,0,1.55-1.12c.13-.29.82-1.4.82-1.4l8.76.71s0,1.32,0,2.43c1.38,23.43,17.69,22.65,20.81,22.61,18.77-.2,24.08-15.69,24.18-28C257.49,103,253.7,97,251,94.17a15.85,15.85,0,0,0-8-4.24,40.51,40.51,0,0,0-6.53-.62,55.53,55.53,0,0,1,12.28-12.8s2.39.53,2.72.59a5.09,5.09,0,0,0,2-.33s.13-2.55.23-3.8-.17-1.84-.56-2.17a28.74,28.74,0,0,0-5.81-3.7c-1.51-.53-6.93-1.68-10.93-.92A84.26,84.26,0,0,0,226.08,70c-.39-4.85-3.15-6.56-5.25-7.48a6.2,6.2,0,0,0-.35-.92c.74-1.22,6.74-13.39,6.78-13.65s.13-1.92.22-2.89h9.14s1,1.23,1.49,1.84c.17.22,1,.22,1.53.09a48.75,48.75,0,0,1,8.23-1.8,37.94,37.94,0,0,1,7.65.7c1,.18,2,0,2.37-.48a113.25,113.25,0,0,0,4.37-10.94c.25-.82.09-1.35-.7-1.4H261a21.61,21.61,0,0,0-3.76.28h0a98.79,98.79,0,0,0-16.41,6.78c-3-.18-16.31-.35-18.72-.39a3.18,3.18,0,0,0-2-.79c-1-.09-16.81-.09-19.08,0s-3.94.35-4.77,1.31c-1,0-5.6.09-9.85.18.48-.88,1.45-3.68,1.88-4.86.13-.35.32-.88-.7-.88a20,20,0,0,0-4.2.44c-.7.18-10.15,3.11-15.22,6.17a29.26,29.26,0,0,0-3.37-.22c-1.71,0-8.36,0-9.71.18s-2,.57-2.1,1.62a22.57,22.57,0,0,0,.22,3.81c.35,3.15,1.92,3.28,2.75,3.58a13.55,13.55,0,0,0,4.86.48v.35l-.26.27-2.19.3-.35.57-1.91.05a3.49,3.49,0,0,0-.13-.83Zm81.43-9.22h4.11l.68.37v2.38l-2.13,4.21-.92-2h0s.24-.49.13-.74-1.52-3.48-1.6-3.7-.12-.27-.32-.34Zm-25.05,2.67.07-2.53a4.82,4.82,0,0,0,2.8-1.25h15.88A3.19,3.19,0,0,0,214,44.47c1.1,0,1.73,0,1.73,0a.83.83,0,0,0,.79.72.75.75,0,0,0,0,.59c.11.29,1.56,3.59,1.65,3.79a.76.76,0,0,0,.61.39s1.14,2.71,1.14,2.71a20.36,20.36,0,0,1-1.23,2.52,31,31,0,0,1-4.2,5.31c-4.33-.43-13.76-.46-13.76-.46a29.12,29.12,0,0,0-2.56-2.84c-.5-.41-1.9-.63-4.11-1l-1.18-2.49-3.15-.16Zm-4.4-2.34.07,1.71-.48.92-.73-2.63ZM173.6,49.48a40.41,40.41,0,0,0,4.37-.74,1.49,1.49,0,0,0,1.16-1.05,18.77,18.77,0,0,0,.35-2.1c1.77,0,2.91.28,4,.33h.08a.76.76,0,0,0,.84-.51h0l.3-.48.66,0a1,1,0,0,0,.55.39l1.25,4.09-1.45,2.91L180.6,52l-6.48-.08-.52-.57Z" transform="translate(0 0)"/><path class="b" d="M179.47,45.59l0-.73h1.09c1.62,0,3.51.06,4.16.08,0,0-.22.33-.31.48s-.17.53-.92.5C182.38,45.87,181.24,45.59,179.47,45.59Zm-14.33,9a13.92,13.92,0,0,0,2.06-.06,6.31,6.31,0,0,0-.83-1.47,20.81,20.81,0,0,0-3.41-.54,2.09,2.09,0,0,0,.59,2.23h0a20.41,20.41,0,0,0-4.92.71l-.39-.08a11.67,11.67,0,0,1-3.54,7.32c4.85-1.5,8.85-2.58,9-2.55.39.06,16.67,11.09,16.8,11.35a1.34,1.34,0,0,1-.26,1.08c-.17.1-11.91,4.81-20.15,8.9l-.79.39h0a12,12,0,0,1,9.86,18.81c10.05-5.87,20.56-11.27,29-15.25a11.4,11.4,0,0,1-3.22.47A11.27,11.27,0,0,1,183.7,74.68a11.13,11.13,0,0,1,1.44-5.5l-.47.07c-5.86-4.15-19.62-13.6-20.3-14.63Zm-54.29,8.25q-2.61,1.22-5.18,2.5h0a15.89,15.89,0,0,0-2.71,2C102.21,68,90.57,77.1,84.8,82.7c-1.49.83-3.5,2-4.9,2.89s-2.68,1.69-4,2.54c.26,0,.52,0,.78,0a11.69,11.69,0,1,1-9.57,18.37,11.67,11.67,0,0,1-5.64,16.14A32.49,32.49,0,0,1,64.2,126c2,2.67,4.37,8.45,6,13.66a3,3,0,0,0,2.19.21c-.4-2.23-1-5.12-1-5.47s.13-1,1.67-1.88,7.61-4.42,10.08-5.93a.92.92,0,0,1,1.28.23c.27.27.72,3.48.59,6.37A18.46,18.46,0,0,0,87,132.05c.2-.2,2.52-8.66,3.21-10.53a6.66,6.66,0,0,1,3.74-3.78c1.71-.79,13.82-5.68,17.56-7-1.28-1-3.28-2.56-9.68-2.78s-17,5.28-22.18,8a2,2,0,0,1-1.41-2.07c5.71-3.54,15.39-11,25.44-14.88a12.55,12.55,0,0,1,1.1-11.78c-8.27-.1-15.37-.63-18.77-2.09a7.3,7.3,0,0,0,1-1.36,3.05,3.05,0,0,0-.61-1.23c4.2-4.24,15.66-13,17.67-14.48,2.68-.09,6.69,0,10.91.18A10.88,10.88,0,0,1,110.85,62.87Zm122.36,56c0-10.25,4.9-19.63,10.94-21h0a6.38,6.38,0,0,1,1.42-.16c5.37,0,9.52,6.88,9.52,16.3,0,10.25-4.9,19.63-10.94,21S233.21,129.15,233.21,118.91Zm3.18-.74c0,6.54,3.08,11.3,7.06,11.3a5.41,5.41,0,0,0,1.05-.1c4.48-.93,8.11-7.43,8.11-14.54s-3.63-12.11-8.11-11.19S236.39,111.07,236.39,118.17Zm13.76-46.45a12.15,12.15,0,0,0-4.92-3.25,29.29,29.29,0,0,0-5.93,1.46h0a10.74,10.74,0,0,1,2.11,8.85C243.37,77.18,247.86,73.57,250.15,71.72Zm-49,12.35c3.1-1.43,5.83-2.62,8-3.52a76.19,76.19,0,0,1,9.44-6.81c.19-.91.57-3.52.67-4.38a1.62,1.62,0,0,0-.83-1.51,46.22,46.22,0,0,0-5.55-2.49,13.67,13.67,0,0,0-2.26,0l-1.18-.2v-.3c-.49,0-1,0-1.45,0a14.59,14.59,0,0,0-3.1.31h0a5.46,5.46,0,0,1,.09.59,8.64,8.64,0,0,1-2.48.67,11.22,11.22,0,0,1-1.37,17.71Zm-33.25,18.22-1.27,2.5-1.27-.09-6.78,10.89.74.62-.48.83c1.27.92,7.92,4.59,9.23,5.55-1.53-.65-11.9-6.3-12-6.47a8,8,0,0,1-.13-2.28c.11-.25,4.61-5.43,7.2-8.58a12,12,0,0,1-12.87-19.21c-7.1,3.12-14,5.89-14.15,5.89s-8.34-2.9-9.73-3.5a12.48,12.48,0,0,1-1.66,13.89,18.18,18.18,0,0,1,7.83-1.43c4.51.16,10.3,2,13.32,4.68,0-.37.31-.61.61-.8s1.11.68,1.36.74.25,2,.06,2.28a1.44,1.44,0,0,1-1.6.62c-.93-.23-1.65-2.28-7-4.14-5.15-1.77-12.5-1.08-20.47,4.79,7.09-.19,16.25,1.35,22.27,8,3.45.25,6.51,2.27,10.74,4.33s13.16,6.86,17.3,8.14a10.47,10.47,0,0,0,3.61.72c.52-1.15,1.37-3.41,1.64-3.51.06,0,.76-.13,1.77-.27a12,12,0,1,1,16.07-13.08c4.91-7.9,10.62-17.13,11.59-18.74a3,3,0,0,1,1.08,1.67c.59-1.05,1.67-3.08,2.63-4.59a44.78,44.78,0,0,1,14.14.42s0-1.8,0-2.62l.53-.86c1.74.15,5.84,1.12,8.53,1.74.75-1,1.78-2.16,2.88-3.41A10.79,10.79,0,0,1,220,76.61a10.57,10.57,0,0,1,.3-2.47c-1.16.65-2.31,1.34-3.44,2h0l-.5-.13a88.17,88.17,0,0,0-17.13,15.36c-.06.56-.06,1.61-.13,2a11.51,11.51,0,0,1-.47-2,60.83,60.83,0,0,1,8.61-9.19A356.87,356.87,0,0,0,168.12,102Zm-52.24,37.83c0-10.51,6.18-20.21,13.81-21.66h0a10.45,10.45,0,0,1,1.91-.18c6.73,0,11.91,7,11.91,16.59,0,10.51-6.18,20.21-13.81,21.66S115.65,150.63,115.65,140.12Zm3.91-.77c0,6.8,3.89,11.73,8.93,11.73a7.76,7.76,0,0,0,1.43-.13c5.73-1,10.36-7.88,10.36-15.31S135.64,123,129.92,124s-10.35,7.88-10.35,15.31ZM158.28,54a12,12,0,0,1,2.09-1.66c-.75-.09-1.52-.14-2.28-.16a12.07,12.07,0,0,1,.19,1.82ZM39.9,94.54c1,.07,4,6.06,5.71,9.51A4.27,4.27,0,0,0,47,105.58a11.69,11.69,0,0,1,2.62-2.86,10,10,0,0,1-7.51-9.3c-.82.39-1.55.77-2.17,1.12ZM44,132.75c.09.22,1.35.4,1.57.35s0-1.4,0-1.4l2.1-1.57c-1.09-3.37-3.24-8.71-3.63-9.63s.44-2.14,1.4-2.76l1.42.29a11.54,11.54,0,0,1-1.75-6.12c0-.22,0-.42,0-.63a40,40,0,0,0-4.82,5.37,3,3,0,0,0-.52,2.71C40.35,121.16,43.89,132.54,44,132.75ZM262.25,34.42a114.33,114.33,0,0,1-4.37,10.94c-.35.52-1.36.65-2.37.48a37.94,37.94,0,0,0-7.65-.7,47.72,47.72,0,0,0-8.23,1.8,2.3,2.3,0,0,1-1.53-.09,22.23,22.23,0,0,1-2.6-3.41,28.36,28.36,0,0,1,4.59-2.87,34.78,34.78,0,0,0-5.31,2.76c-.49,0-19.76-.15-20-.22s-2-1-2.32-1.27c-1,0-14.55,0-15.95,0s-1.64-.18-1.92-.46c0,.39-1,.89-1.38,1.18a2.16,2.16,0,0,1-1.35.48c-2.17-.09-10.92.15-12.63.28C178.18,42,176,42,174.66,41.91c.32-.31.67-.68,3.06-1.12a13.27,13.27,0,0,0-4.62,1c-.68,0-2.38-.11-3.72-.13a2.87,2.87,0,0,0-1.2-.39c5.08-3.07,14.53-6,15.23-6.17a19.27,19.27,0,0,1,4.2-.44c1,0,.83.52.7.87-.44,1.18-1.4,4-1.88,4.86,4.24-.09,8.88-.18,9.84-.18.83-1,2.5-1.22,4.77-1.31s18-.09,19.08,0a3.42,3.42,0,0,1,1.43.38c-1,.43-2,.82-2.88,1.11,1.67-.4,2.67-.59,3.46-.7,2.41,0,15.75.21,18.73.39a98.09,98.09,0,0,1,16.41-6.78h0A22.74,22.74,0,0,1,261,33h.53C262.34,33.06,262.5,33.59,262.25,34.42ZM259.67,36c-6.84,1.86-15.31,4.72-20.23,7.92h0c.17.24.67.94.85,1.16a37.7,37.7,0,0,1,10.5-1.82,34.81,34.81,0,0,1,4.38-3.44c.19-.11,3-.54,3.17-.65A20.19,20.19,0,0,0,259.67,36ZM58.74,100.39a11.7,11.7,0,0,1,7.61,4.83,11.6,11.6,0,0,1-.25-10.36Q62.88,97,59.72,99.34A10.86,10.86,0,0,1,58.74,100.39Zm45.09-1c-6.32,2.83-11.39,6.46-14.58,8.49h0a39.13,39.13,0,0,1,11.5-3.69,18.51,18.51,0,0,1,7.7.51A12.52,12.52,0,0,1,103.83,99.39ZM66.18,94.7a11.73,11.73,0,0,1,5.72-5.57,30.65,30.65,0,0,0-8.63-1.27c-.88,0-1.79,0-2.71.13h0a9.83,9.83,0,0,1-.19,10.45Q63.25,96.54,66.18,94.7Zm48.68,12.55,1-.58c-.23,0-.45,0-.68,0a12.38,12.38,0,0,1-3.26-.44c.4.25.69.45.83.55A2.36,2.36,0,0,0,114.86,107.25Zm11.22-19.38a6.84,6.84,0,0,1-.1-1.5c.07-.23,11.06-16.15,11.68-16.77,1-1,4-2.35,7.56-3.68a11.71,11.71,0,0,1-10.3-11.6c0-.07,0-.14,0-.21-.64.14-1.33.31-2,.47h0c-.65.18-1.28.38-1.92.57a10.61,10.61,0,0,1,.84,4.15,10.82,10.82,0,0,1-6,9.68c1.73.16,3.31.32,4.61.5-2.28,3.38-6.5,9.4-9.74,13.41A12.64,12.64,0,0,1,126.08,87.87Z" transform="translate(0 0)"/><path class="c" d="M172.84,110.09h0a9.35,9.35,0,0,1,12.93-2.79,9.49,9.49,0,0,1,2.73,2.7L208,139.54,175.63,123A9.35,9.35,0,0,1,172.84,110.09ZM188.55,69h0a8.26,8.26,0,1,0,14.07,8.18h0L218.87,33ZM127.64,54,104.81,21.88l7.91,38.63a8.51,8.51,0,0,0,1.36,3.15A8.32,8.32,0,0,0,127.64,54ZM156,52.44,150.81,0h0L137.74,51.05a9.44,9.44,0,0,0-.25,3.22A9.3,9.3,0,1,0,156,52.44Zm7.75,49.35h0l22.37-12.12-25-5a9.09,9.09,0,0,0-6.18.93h0a9.19,9.19,0,0,0,8.75,16.17Zm-95,2.58a9.28,9.28,0,0,0,13,1.87h0a9.26,9.26,0,0,0,1.87-13h0L49,47l18.4,54.74h0A9.23,9.23,0,0,0,68.75,104.37Zm157.7-34.83h0a8.49,8.49,0,0,0-1.87,1.77,8.24,8.24,0,0,0,13.07,10L269.38,40ZM53,120.36h0a9.41,9.41,0,0,0,3,.54,9.28,9.28,0,1,0,.28-18.55L0,101.52Zm2.89-21.64a7.19,7.19,0,0,0,1.93-10,7.41,7.41,0,0,0-1.44-1.57L19,57,45.86,96.79A7.19,7.19,0,0,0,55.86,98.72Zm50-8.34h0a9.9,9.9,0,1,0,17.07-2.77l-11-13.94Z" transform="translate(0 0)"/></svg>