<svg xmlns="http://www.w3.org/2000/svg" xmlns:xlink="http://www.w3.org/1999/xlink" viewBox="0 0 247.18 130.35"><defs><style>.a{fill:url(#a);}.b{fill:url(#b);}.c{fill:#ff8ae1;}</style><linearGradient id="a" x1="44.66" y1="110.91" x2="222.66" y2="8.14" gradientUnits="userSpaceOnUse"><stop offset="0" stop-color="#ae31ff"/><stop offset="0.25" stop-color="#ae31ff"/><stop offset="0.7" stop-color="#003ba3"/><stop offset="1" stop-color="#003ba3"/></linearGradient><linearGradient id="b" x1="157.94" y1="52.26" x2="235.47" y2="7.5" gradientUnits="userSpaceOnUse"><stop offset="0" stop-color="#389cfd"/><stop offset="1" stop-color="#005fe8"/></linearGradient></defs><title>swapper</title><path class="a" d="M63.22,102.7l1.9.45,1.74-.58,0-.75,3.06.52s.1,2.36.2,4c1,17,12.38,23.92,25.45,24h.71c14.13-.2,22.74-18,22.35-30.13a31.33,31.33,0,0,0-1.44-8.38c1.57,1.77,3.2,3.5,4.87,5.18a111.85,111.85,0,0,0,21.24,16.9l1.43.88,1.49.81,3,1.6c2,1,4.05,1.91,6.05,2.8a79.48,79.48,0,0,0,12.39,4.09,71,71,0,0,0,24,1.85,62.83,62.83,0,0,0,19.53-5,54.89,54.89,0,0,0,13.18-7.94,42.34,42.34,0,0,0,4.21-3.86c.51-.52,1-1.07,1.49-1.6l7.73,7.56,9.43-36.87L210.53,88.55,217.14,95c-.83.29-1.74.59-2.73.88-1.5.42-3,.77-4.54,1.05-.84.14-1.69.29-2.59.39l-1.36.18-1.43.1a48.63,48.63,0,0,1-12.61-.69A58.72,58.72,0,0,1,185,95.22a62.39,62.39,0,0,1-7-2.8c-.58-.29-1.18-.53-1.76-.86s-1.16-.66-1.76-1-1.18-.64-1.76-1l-1.77-1c-1.56-1-3.08-2.1-4.58-3.21a46,46,0,0,1,6.21-.09,4,4,0,0,0,1.51-1.1c.13-.29.81-1.39.81-1.39l8.61.71s0,1.29,0,2.39c0,.49.07.94.11,1.41.9.35,1.84.69,2.8,1l.74.26A50.86,50.86,0,0,0,193,90l.11,0,.1,0a43.32,43.32,0,0,0,5.17.61l.41,0c.74,0,1.44,0,2.1,0s1.22,0,1.78,0L197,85.08c4.06-1.38,23.42-9.5,26.66-20.67a19.28,19.28,0,0,0-2.15-2.78,15.51,15.51,0,0,0-7.84-4.16,38.64,38.64,0,0,0-6.42-.61,54.45,54.45,0,0,1,12.07-12.58l2.68.58a5.11,5.11,0,0,0,2-.33s.13-2.51.22-3.74-.16-1.8-.55-2.13A27.77,27.77,0,0,0,217.93,35c-1.48-.52-6.8-1.65-10.74-.91A84.21,84.21,0,0,0,197,37.82c-.38-4.77-3.09-6.45-5.16-7.35a4.92,4.92,0,0,0-.34-.9c.73-1.21,6.62-13.16,6.66-13.42s.13-1.9.22-2.84h9s1,1.2,1.46,1.8c.17.22.95.22,1.51.09a47.58,47.58,0,0,1,8.08-1.76,36.25,36.25,0,0,1,7.53.69c1,.17,2,0,2.32-.48a109.13,109.13,0,0,0,4.3-10.75c.25-.81.09-1.34-.68-1.38a23.23,23.23,0,0,0-4.22.26,97.36,97.36,0,0,0-16.13,6.67c-2.92-.18-16-.35-18.41-.39a3.07,3.07,0,0,0-2-.77c-1-.09-16.51-.09-18.75,0s-3.87.34-4.69,1.28c-1,0-5.5.09-9.68.18.48-.86,1.42-3.62,1.85-4.78.13-.34.31-.86-.69-.86a19.38,19.38,0,0,0-4.13.43c-.68.17-10,3.06-15,6.07a28.51,28.51,0,0,0-3.32-.22c-1.67,0-8.21,0-9.54.17s-1.94.56-2.07,1.6a21.75,21.75,0,0,0,.22,3.74c.34,3.09,1.89,3.22,2.71,3.52a13.26,13.26,0,0,0,4.77.48v.34l-.26.26-2.15.3-.34.56-1.88.05a3.26,3.26,0,0,0-.13-.81,1,1,0,0,0-1.53-.73,11,11,0,0,0-2.23,1.68l-1.72.07-.93,0c-.06-.32-.12-.71-.21-1.19-.18-.95-.7-1.32-1.5-.89a8.5,8.5,0,0,0-2.87,2.35l-1.6.13a1.81,1.81,0,0,1-.65-1.56c.1-.69.12-1.45-1.13-.94a8,8,0,0,0-2.49,1.77c-2.29-2-4.65-4-7.14-5.84A77.09,77.09,0,0,0,79.45,2.18,66.68,66.68,0,0,0,66.13,0C65.41,0,64.7,0,64,0A58.27,58.27,0,0,0,53.56.88,56.42,56.42,0,0,0,34,8.5,60,60,0,0,0,18,23.22L9.88,15.27,0,53.92,38.41,43.16l-7.47-7.3c1-.47,2.11-1,3.35-1.48a57,57,0,0,1,9.93-3.08c.94-.19,1.89-.34,2.85-.5s2-.26,3-.26a30.83,30.83,0,0,1,6,.15,33.21,33.21,0,0,1,12,3.8,49,49,0,0,1,5,3.12c-3.94,3.16-10.89,8.81-14.93,12.73-1.46.82-3.44,2-4.82,2.84q-3.14,1.95-6.22,4a29.92,29.92,0,0,0-14.64-1.43c-12.06,1.86-20.68,7.39-20.9,7.77a9.84,9.84,0,0,0-.07,3.33,6.67,6.67,0,0,1,1.9-.88S17,72.4,17,72.44c-2.63,2.07-8.91,7.49-7.32,19.32,1,7.29,4.88,12.12,9.74,13.49,3.68,1,8.13,0,10.29-1.79,6.85,1.73,15.39,3.89,15.8,4,.69.26.95.22,1.33,0S53,104.41,53,104.41a15.64,15.64,0,0,0,2.73.84,62.14,62.14,0,0,0,7.23-1.88A2.36,2.36,0,0,0,63.22,102.7ZM189,12.81h4l.67.36v2.34l-2.09,4.13-.9-1.92h0s.24-.48.13-.72-1.5-3.43-1.58-3.65-.11-.26-.3-.33Zm-24.62,2.62.06-2.49a4.65,4.65,0,0,0,2.75-1.23h15.62a3.09,3.09,0,0,0,2.32,1.06c1.08,0,1.7,0,1.7,0a.82.82,0,0,0,.77.71.78.78,0,0,0,0,.58c.11.28,1.53,3.52,1.62,3.72a.73.73,0,0,0,.6.38s1.12,2.67,1.12,2.67a18.45,18.45,0,0,1-1.21,2.47,29.73,29.73,0,0,1-4.13,5.23c-4.26-.43-13.53-.45-13.53-.45h0a29.36,29.36,0,0,0-2.51-2.79c-.5-.42-1.87-.63-4.05-.95l-1.16-2.45-3.09-.15Zm-5.45-2.3H160l.07,1.68-.48.9-.71-2.58Zm-13.52,4.56a39.87,39.87,0,0,0,4.3-.73,1.49,1.49,0,0,0,1.14-1,17.86,17.86,0,0,0,.34-2.07c1.74,0,2.86.28,3.92.32h.08a.76.76,0,0,0,.82-.5h0c.08-.15.3-.47.3-.47l.64,0a.91.91,0,0,0,.54.38l1.23,4-1.42,2.86-5-.33-6.37-.08-.51-.56Z" transform="translate(0 0)"/><path class="b" d="M146.29,65.07q-4.23-5.41-8-11.14l-3.13-4.82-.7-1.06c7.81-3.71,17.34-7.53,17.48-7.62a1.25,1.25,0,0,0,.26-1.06c-.13-.26-16.13-11.1-16.52-11.16-.2,0-6.64,1.72-13.06,3.85a121.31,121.31,0,0,0-9.85-10.33c1-.16,2-.31,3-.41l-.27-.26,1.6-.13a9.94,9.94,0,0,0-.6.83c.34.06.68.1,1,.13a32.22,32.22,0,0,1,4.34-.47,2.6,2.6,0,0,1-.19-.76l.93,0,1.72-.07a13.93,13.93,0,0,0-1.53,1.58,1.93,1.93,0,0,0,1.18.14,31,31,0,0,1,4.74-.67,1.47,1.47,0,0,1-.5-1.19h0l1.32,0a21.49,21.49,0,0,1,2.85.17,9.58,9.58,0,0,0-2.94,2.71,3.73,3.73,0,0,0,1.23.34,19.73,19.73,0,0,1,4.84-.7,2,2,0,0,1-.59-2.19,20.43,20.43,0,0,1,3.36.53,6.53,6.53,0,0,1,.82,1.45,15.21,15.21,0,0,1-2,.06c-.34,0-.63,0-.76,0,.67,1,14.2,10.3,20,14.38,9.27-1.4,19.66-3,20-3.5a5.09,5.09,0,0,0-.09-.58,15.83,15.83,0,0,1,4.48-.26v.3l1.16.19a15.61,15.61,0,0,1,2.21,0,44.79,44.79,0,0,1,5.46,2.46,1.56,1.56,0,0,1,.82,1.48c-.11.84-.47,3.41-.67,4.3a76.52,76.52,0,0,0-9.28,6.7A348,348,0,0,0,146.29,65.07ZM211.52,8.44a97.94,97.94,0,0,1,16.13-6.66h0a21.85,21.85,0,0,1,3.69-.27h.53c.77,0,.93.56.69,1.37a113.69,113.69,0,0,1-4.3,10.76c-.35.51-1.34.64-2.33.47a36.84,36.84,0,0,0-7.52-.69,48.22,48.22,0,0,0-8.09,1.77,2.25,2.25,0,0,1-1.51-.09,21.69,21.69,0,0,1-2.55-3.35,27.77,27.77,0,0,1,4.51-2.82,34.07,34.07,0,0,0-5.22,2.71c-.48,0-19.42-.15-19.64-.22s-1.91-1-2.28-1.24c-1,0-14.3,0-15.68,0s-1.61-.17-1.89-.45c0,.38-1,.88-1.35,1.16a2.12,2.12,0,0,1-1.34.47c-2.12-.09-10.73.15-12.41.28-1-1.36-3.22-1.29-4.51-1.42.32-.3.66-.67,3-1.1a12.76,12.76,0,0,0-4.54,1c-.66,0-2.34-.11-3.65-.13a3.09,3.09,0,0,0-1.19-.39c5-3,14.28-5.89,15-6.06a19.32,19.32,0,0,1,4.13-.43c1,0,.82.51.69.86-.43,1.16-1.38,3.91-1.85,4.77,4.17-.08,8.73-.17,9.68-.17.81-.94,2.45-1.2,4.69-1.29s17.72-.09,18.75,0a3.52,3.52,0,0,1,1.41.38,29.25,29.25,0,0,1-2.83,1.08c1.64-.38,2.63-.58,3.4-.68C195.48,8.1,208.59,8.27,211.52,8.44Zm-1.4,3.77h0c.17.23.67.92.84,1.14a36.61,36.61,0,0,1,10.32-1.79,33.57,33.57,0,0,1,4.3-3.37c.2-.11,2.95-.54,3.12-.65A19.18,19.18,0,0,0,230,4.42C223.28,6.25,215,9.07,210.12,12.21ZM178.45,49.87c-9.49,4.26-19.74,8.89-31.81,15.65,1.28,1.64,2.59,3.24,3.94,4.82a105.19,105.19,0,0,0,12,12c5-8.09,11.45-18.47,12.47-20.17a2.93,2.93,0,0,1,1.07,1.64c.58-1,1.64-3,2.58-4.51a43.86,43.86,0,0,1,13.9.42s0-1.78,0-2.59l.51-.84c1.71.15,5.74,1.1,8.39,1.71,2.77-3.51,9.23-10.35,9.58-10.71s6.68-5.42,9.52-7.71a12.05,12.05,0,0,0-4.84-3.19,34.25,34.25,0,0,0-10,3.1l-.16-.26a68.43,68.43,0,0,1,6.61-3.45,9,9,0,0,0-3.29-.58h-.19c-8.1,1.48-16.07,5.71-20.9,8.77l-.49-.13a86.86,86.86,0,0,0-16.84,15.1c-.06.55-.06,1.58-.13,1.94a11.2,11.2,0,0,1-.46-2A59.7,59.7,0,0,1,178.45,49.87ZM151.13,13.16l0,.7c1.74,0,2.86.29,3.92.33.73,0,.81-.35.9-.5l.3-.47c-.64,0-2.5-.08-4.09-.08h-1.07Zm64,57.78a5,5,0,0,1,3.94.86,23.56,23.56,0,0,0,2.78-3.48,7.28,7.28,0,0,0-5.68-3.12,6.71,6.71,0,0,0-1.39.15h0c-5.13,1.13-9.41,8.19-10.47,16.59,1.18-.58,2.35-1.2,3.5-1.84C209,75.35,211.8,71.62,215.09,70.94Z" transform="translate(0 0)"/><path class="c" d="M102,85.5c-7.5,1.43-13.58,11-13.58,21.29S94.5,124.35,102,122.92s13.58-11,13.58-21.29S109.5,84.08,102,85.5m.45,31.94c-5.63,1-10.19-4.09-10.19-11.4S96.82,92,102.45,91s10.18,4.1,10.18,11.41-4.56,14-10.18,15m21.52-29c-4-2.31-7.17-4-10.56-4.26-5.92-6.58-14.93-8.1-21.9-7.91,7.84-5.77,15.07-6.45,20.13-4.71,5.3,1.83,6,3.84,6.92,4.07a1.41,1.41,0,0,0,1.57-.61c.19-.24.19-2.18-.06-2.24s-1-.91-1.33-.73-.61.43-.61.79c-3-2.67-8.65-4.44-13.09-4.61-4.14-.15-7.76.79-17.4,6.25a2.34,2.34,0,0,1-2-.43c-.71-.48-4.68-3.52-11.84-2.58a38.64,38.64,0,0,0-11.3,3.62c4.07-2.59,11.27-7.85,20.24-10.56C70.8,67,58.38,76.82,51.61,81a2,2,0,0,0,1.38,2C58.12,80.4,68.51,75,74.8,75.21S83.06,77,84.32,78C80.64,79.21,68.74,84,67.06,84.79a6.49,6.49,0,0,0-3.68,3.71c-.68,1.84-3,10.16-3.16,10.36A19.06,19.06,0,0,1,58.31,100c.13-2.84-.32-6-.58-6.25a.9.9,0,0,0-1.26-.23c-2.43,1.48-8.4,5-9.91,5.83s-1.63,1.5-1.63,1.85.56,3.18.94,5.37a2.93,2.93,0,0,1-2.15-.21c-1.59-5.12-3.95-10.8-5.89-13.42S34.9,88.83,33,88.14a138.43,138.43,0,0,0-13.64-3.35c-.95.6-1.77,1.8-1.38,2.71s2.5,6.15,3.57,9.46l-2.06,1.55s.21,1.33,0,1.38S18,99.76,18,99.54s-3.57-11.4-4.13-13.16a3,3,0,0,1,.51-2.67c3.79-5.33,14.12-14,27.81-23C33.6,66,31.7,67.47,31.38,67.72c-.55-.35-1.65-1.37-1.36-1.8-5.13,3.55-7.77,7.19-8.39,7.19s-1.62-.89-2.06-1.79C17.87,67.93,14.9,62.05,14,62a57.55,57.55,0,0,1,18.46-6.21,29.92,29.92,0,0,1,14.64,1.43q3.09-2.05,6.22-4c1.38-.86,3.36-2,4.82-2.84,5.68-5.51,17.12-14.46,17.85-15.06-4-3.92-6.22-5.84-10.73-7.47,4.92.72,8.75,2.55,14,5.18q2.1-1.05,4.23-2C73.71,23.36,62.38,18,46,20.38c15.92-5.95,32.83-1.18,54.89,16.72A216.16,216.16,0,0,0,77.06,36c-2,1.5-13.25,10.06-17.38,14.23a2.89,2.89,0,0,1,.6,1.21,7.32,7.32,0,0,1-1,1.33c4.09,1.76,13.59,2.15,24,2.06a19,19,0,0,1,3.14-1.33c.35-.09,4.84-.39,5-.6,2.9-3.14,7.83-10.06,10.77-14.35,1.29,1.41,2.6,2.9,3.9,4.46-3.31,4.74-7.48,10.82-7.52,11a6.77,6.77,0,0,0,.19,1.94c.1.16,9.48,3.55,9.77,3.55.14,0,3.3-1.27,7.51-3q1.41,2.12,2.76,4.27A161.61,161.61,0,0,0,130.9,77.52c-1.55,1.83-2.82,3.31-2.87,3.44a7.42,7.42,0,0,0,.13,2.24c.08.17,10.28,5.72,11.78,6.37-1.29-.95-7.83-4.56-9.07-5.47l.47-.81-.73-.61,2-3.16c6.09,6.8,18.7,18.27,28.67,23a61.48,61.48,0,0,1-18-8.81,9,9,0,0,0-2.12.94c20.31,19.13,45.19,22.44,64.21,16.25-11.17,5.5-25.7,6.34-38.45,3.3-14.42-3.43-31.47-19.21-43-25.8" transform="translate(0 0)"/></svg>