<svg xmlns="http://www.w3.org/2000/svg" xmlns:xlink="http://www.w3.org/1999/xlink" viewBox="0 0 198.87 212.68"><defs><style>.a{fill:url(#a);}.b{fill:url(#b);}.c{fill:url(#c);}</style><linearGradient id="a" x1="71.46" y1="30.13" x2="142.62" y2="153.4" gradientUnits="userSpaceOnUse"><stop offset="0" stop-color="gray"/><stop offset="1" stop-color="#494949"/></linearGradient><linearGradient id="b" x1="100.63" y1="49.32" x2="100.63" y2="210.79" gradientUnits="userSpaceOnUse"><stop offset="0" stop-color="#e2e2e2"/><stop offset="1" stop-color="#6d6d6d"/></linearGradient><linearGradient id="c" x1="85.06" y1="6.59" x2="85.06" y2="76.62" gradientUnits="userSpaceOnUse"><stop offset="0" stop-color="#e2e2e2"/><stop offset="1" stop-color="#848484"/></linearGradient></defs><title>tornado</title><path class="a" d="M58.87,111.09c3.43,1.53,6.95,2.82,10.5,4,2.61.9,4,.94,4.75,2.84.87,2.34.19,5.42,1.47,8.08.79,1.63,2,3,2.81,4.59-4.45.13-9.05,1.47-10.78,6.07-1.91,5.07,1.41,9.39,4.61,12.94,2.62,2.89,2.1,2.49.42,6-2.08,4.4-2.9,2.4-6.64,4.25-4.24,2.08-4.06,5.75-4.29,9.73a21.13,21.13,0,0,1-1,4.74,14.58,14.58,0,0,0-.61,2.65c-.29,4.63,3.75,7.08,5.27,10.74,6.08,14.67,14.7,20.93,30.2,24.19,1.81.38,6.49,1.78,7.44-.82,1.14-3.12-9.93-9-11.53-10.94,5.73-2,10.93-7.53,5.43-13-.61-.62-3.63-1.74-3.86-2.49-.43-1.37,4.8-9.27,6.25-9.91,2.13-.95,7.16,2.13,10.26,2.61a21.71,21.71,0,0,0,10-.41c9.45-3.2,8.25-13.4,2.69-19.7,9-4.58,28.21-10,27.58-22-.16-3.19-1.93-6-2.29-9.14-.61-5.39,3.35-6.68,7.16-9.77a109.06,109.06,0,0,0,11.18-10.18c1.31-1.4,2.76-5,4.18-6,6.74-3.55,29.26-6.24,28.9-17-.28-8.38-14-7.35-19-9.66-5.58-2.6-10.5-6.67-16.23-9.21C152,59.25,139.43,55.85,126.92,53,133.24,29.2,117.14,4.39,92.84.53c-25.22-4-48.81,16-48.79,41.61C33.81,41.12,4.45,38.7.33,52.63-.66,56,1.94,58,2.1,60.92,2.2,62.58,1,64,.69,66.12,0,70.24,2.34,74.27,4.85,77.31a42.24,42.24,0,0,0,9.9,8.41c2.33,1.51,6.55,2.89,8.61,4.83,1.4,1.32,1.88,3.58,3.66,5A45,45,0,0,0,32.71,99C41,103.81,50.17,107.14,58.87,111.09Zm10.88,50.74Zm0,0Zm30,49.34Zm-5.4-24.78C94,186,93.88,185.68,94.36,186.4Zm6.73-14.08s0,0-.06.08Z" transform="translate(-0.1 -0.02)"/><path class="b" d="M15.87,49.79C11,50.51,2.71,52.69,4.29,59c.51,2,9.7,11.37,9.62,11.49L4.62,64.67C1.14,77,20.79,84.66,29.11,88.88c-5,1.91,9.87,9.69,11.45,10.49,7.14,3.64,14.53,7.08,21.93,10.17,14.76,6.17,30.68,10.34,46.25,13.82-7.7,3.09-21.4-2.8-29-5.42-.58,3.69.9,5.31,2.63,8.44,2,3.72,2.18,6.8,2.18,11-4.65,0-16-2.3-9.7,6.3,4.19,5.75,11.44,8.09,17.86,10.25-2.31-.23-9.42-3.68-11.17-3-2.78,1.08-4.14,10-6.06,12.2-2.44,2.85-4,0-6.93,2.07s0,6.37,1.35,8.72A4,4,0,0,0,65.75,178c.32,3.51,6.45,4.62,9,5.31-1.22.21-3.34-.32-4.91-.61,1,8.23,3.65,15,10.22,20.43,3.9,3.23,16.14,9,21.18,7.34-1.14-2.14-4.41-3.32-6.29-4.73a28.81,28.81,0,0,1-6.47-6.57c5.71-2.8,11.6-8.17,2.4-11.07.91,2.19,2.92,2.15,2.36,5-.43,2.18-3.27,4.31-5,5.38-3.89-6.35,2.51-17.11,5.88-22.44,1.71-2.7,3.09-6.47,6.25-6.18,3.41.31,6.87,3.16,10.64,3.48,6.19.54,14-2.16,9.94-9.61-1.53-2.83-4.26-4.83-6.64-6.89-2.16-1.88-6.57-4.15-8.09-6.33,3,.92,6.67,4.26,9.8,4.15,3-.11,8.21-3.83,10.83-5.05,5.36-2.49,13.14-4.52,17.12-9.15,4.62-5.37-1.35-11.42-.08-17.52s11.07-10.69,15.47-14.56c5-4.39,8.17-10.09,14.54-12.09s13.84-3.53,19.51-7.52c10.34-7.27-3.25-12.18-10.28-12.83,2.69,1.33,8.3,4.72,7.82,8.36-.39,2.88-4.87,4.56-7.09,5.64a137.12,137.12,0,0,1-20.05,7.46c5.16-3.05,14.58-8.65,13.54-16-.76-5.27-6.84-8.4-11.14-10.37-9.07-4.15-19.28-6.32-29.12-7.71,6.43,3,35.06,16.45,15.84,22.52-12.06,3.81-26.07,3.23-38.58,3a244.81,244.81,0,0,1-63.54-10C41.25,76,25.54,71.25,21.87,60.39A11.59,11.59,0,0,1,24,49.32,57.46,57.46,0,0,0,15.87,49.79Zm68.34,90c-.36,1.56-.4,6.61-1.93,7.62-1.92-1.22-5.75-5.17-4.71-7.85C78.4,137.38,84.68,137.7,84.21,139.74Zm-15,40.3a3.15,3.15,0,0,1-1.59-3.3,3.46,3.46,0,0,1,2.89-1.64C70,176.75,69.59,178.39,69.16,180ZM71,173.4c-3.5-5.1-2.57-7.1,3.07-7.45ZM112.35,157c5.79,4.27,10,13.39-.65,13.24-3.07,0-11.7-.21-11.16-3.17C101.12,163.89,110,158.49,112.35,157ZM135,102.2c-21.54,4.18-46.42,2.57-66.82-6.06C90.05,100.51,112.58,103,135,102.2Zm-105-11.81c8.95,1.28,17.95,8,26.16,11.67C49.71,101.87,33.63,96.13,29.92,90.39Z" transform="translate(-0.1 -0.02)"/><path class="c" d="M52.79,61.19s.65,1.22,2.69.39a8.57,8.57,0,0,1,4.26-1s4.33.41,10.77,4.33c0,0,6.67,4.08,8.08,4.87.86.49,3.88,2.16,7,3.64,0,0,9.94,5.71,19.47-.08A38.11,38.11,0,1,0,47,40.91v0A38,38,0,0,0,52.79,61.19Zm41.82-42a7.39,7.39,0,0,1,3.14-3c2.44-.91,4.89-1.79,7.35-2.66,0,0,2.05-.81,3.29.34,0,0,17.06,13.51,8.47,37.15a1.46,1.46,0,0,1-1.47,1,2.42,2.42,0,0,1-.62-.08h0C110,50.35,105,48,105,48a19.89,19.89,0,0,1-8.62-7C89.08,28.42,94.61,19.22,94.61,19.22Zm-6.41,8.3a3.87,3.87,0,0,1,.13,3.19,62.4,62.4,0,0,1-3.27,7.06,3.69,3.69,0,0,1-1.86,1.61C74.13,42,69,53.1,69,53.1a2.9,2.9,0,0,1-2.17,1.29A16.52,16.52,0,0,1,63,54.3a1.39,1.39,0,0,1-1.25-1.41C61.54,45.1,65,40.79,65,40.79a1.75,1.75,0,0,1,2.28-.4,2.24,2.24,0,0,0,.67.09,2.86,2.86,0,0,0,1.46-.4h0a7.76,7.76,0,0,0,3.69-3.32,2.49,2.49,0,0,0,.32-1.85c-.74-2.23.89-3,.89-3a66.27,66.27,0,0,1,11.65-5S87.66,26.41,88.2,27.52ZM59.8,31.94c-1.49-.86-1.78-3.13-.66-5.07s3.22-2.81,4.71-1.95S65.63,28,64.51,30a4.25,4.25,0,0,1-3.46,2.28,2.39,2.39,0,0,1-1.25-.33ZM85,19.44c.08.93.16,1.57.24,2.51.1,1.19-1.21,1.93-1.21,1.93a76.7,76.7,0,0,1-10.14,4.24,1.38,1.38,0,0,1-.45.09c-.89,0-.79-1.34-.79-1.34h0A10.05,10.05,0,0,0,71.3,21s-.79-1.13.72-1.38a87.57,87.57,0,0,1,11.19-1.21S84.93,18.42,85,19.44ZM63.51,14.06c.83-.52,1.68-1,2.55-1.46a3.18,3.18,0,0,1,3.08-.29,7.78,7.78,0,0,0,3.4.75,8.1,8.1,0,0,0,3.39-.75s3.81-2.22,6.35.06a8,8,0,0,1,2,2.87c-4.67.79-8.88,1.17-8.88,1.17a3,3,0,0,1-2-.67c-3.34-2.41-7.12.1-7.12.1-1.06.72-1.61.39-1.61.39a7.06,7.06,0,0,1-1.45-1.11C62.67,14.53,63.51,14.06,63.51,14.06Zm-5.26,4.22a18.54,18.54,0,0,1,3.09-1.72.94.94,0,0,1,.92.12,5,5,0,0,1,.77.83c.43.53-.33.75-.33.75a13.23,13.23,0,0,0-4.11,2.4.49.49,0,0,1-.3.14c-.27,0-.37-.4-.37-.4a8.16,8.16,0,0,1-.24-1.4S57.65,18.67,58.25,18.28ZM57,39.45a7.27,7.27,0,0,0,4.15.88s1.71-.29,1.25,1c-1.64,4.85-3.74,9.33-3.74,9.33A1.81,1.81,0,0,1,57,51.93H57c-.72-.06-1.44-.15-2.15-.27-1-.17-.81-1.55-.81-1.55a54.05,54.05,0,0,1,1.64-9.89S56,38.89,57,39.45ZM53.81,23.39s2.54.37.65,4c-3.21,5.27-1.38,12-1.38,12,.77,4.82-2.18,6.55-2.18,6.55a24.18,24.18,0,0,1-1.54-8.42A25.05,25.05,0,0,1,53.81,23.39Z" transform="translate(-0.1 -0.02)"/></svg>